M48
;Layer_Color=9474304
;FILE_FORMAT=4:4
METRIC,LZ
;TYPE=PLATED
T01F00S00C0.3000
T02F00S00C1.0000
T03F00S00C1.0200
%
T01
X00275Y0005
X00325
X00375
X00425
X00475
X00525
X0055Y001
X005
X00525Y0015
X00475
X005Y002
X0055
X00525Y0025
X00475
Y0035
X00525
X0053Y00316
X0055Y003
Y004
X005
X00525Y0045
X00475
X00425
X00375
X004Y004
X0045
X00425Y0035
X00375
X00347Y00352
X0035Y004
X003
X00275Y0045
X00225
X00192Y00477
X00125Y0045
X00075
X001Y004
X00125Y0035
X00175
X00225
X00275
X003Y003
X0025
X002
X0015
X001
X00125Y0025
X00175
X00225
X00275
X00325
X00348Y00268
X00375Y0025
X00425
X00414Y00296
X0045Y002
X00425Y0015
X0045Y001
X004
X0035
X003
X00325Y0015
X00275
X00225
X0025Y002
X003
X0035
X002
X0015
X001
X00125Y0015
X00075
X001Y001
X0015
X002
X00075Y0025
Y0035
X00025
X0005Y004
X00025Y0045
X0005Y003
X00025Y0025
X0005Y002
X00025Y0015
X0005Y001
X0035Y005
X004
X0045
X005
X0055
T02
X000706Y0002
X00096
X001214
X001468
X001722
X001976
X00223
X002484
X002738
X002992
X003246
X0035
X003754
X004008
X004262
X004516
X00477
X005024
X005278
X005532
X001854Y0015
X0016
X001506Y00409
X00176
X002014
Y004344
X002268
X002522
Y00409
X002268
X00176Y004344
X001506
X000706Y0053
X00096
X001214
X001468
X001722
X001976
X00223
X002484
X002738
X002992
X003246
X0035
X003754
X004008
X004262
X004516
X00477
X005024
X005278
X005532
T03
X000196Y0005
X00045
X000704
X000958
X001212
X001466
X00172
X001974
X002526Y00088
X00278
X0038Y00295
Y003204
X000704Y005
X00045
X000196
X000958
X001212
X001466
X00172
X001974
M30
