G04*
G04 #@! TF.GenerationSoftware,Altium Limited,Altium Designer,25.4.2 (15)*
G04*
G04 Layer_Color=32896*
%FSLAX44Y44*%
%MOMM*%
G71*
G04*
G04 #@! TF.SameCoordinates,A3258BCF-D6D9-422E-9B80-D07A6E9861EE*
G04*
G04*
G04 #@! TF.FilePolarity,Positive*
G04*
G01*
G75*
%ADD14C,0.2000*%
D14*
X39929Y534998D02*
X33265Y525002D01*
Y534998D02*
X39929Y525002D01*
X23268Y533332D02*
X24934Y534998D01*
X28266D01*
X29932Y533332D01*
Y531666D01*
X28266Y530000D01*
X24934D01*
X23268Y528334D01*
Y526668D01*
X24934Y525002D01*
X28266D01*
X29932Y526668D01*
X19935Y533332D02*
X18269Y534998D01*
X14937D01*
X13271Y533332D01*
Y531666D01*
X14937Y530000D01*
X16603D01*
X14937D01*
X13271Y528334D01*
Y526668D01*
X14937Y525002D01*
X18269D01*
X19935Y526668D01*
X39729Y23998D02*
X33064Y14002D01*
Y23998D02*
X39729Y14002D01*
X23068Y22332D02*
X24734Y23998D01*
X28066D01*
X29732Y22332D01*
Y20666D01*
X28066Y19000D01*
X24734D01*
X23068Y17334D01*
Y15668D01*
X24734Y14002D01*
X28066D01*
X29732Y15668D01*
X13071Y14002D02*
X19735D01*
X13071Y20666D01*
Y22332D01*
X14737Y23998D01*
X18069D01*
X19735Y22332D01*
X38329Y477998D02*
X31665Y468002D01*
Y477998D02*
X38329Y468002D01*
X28332D02*
Y477998D01*
X23334D01*
X21668Y476332D01*
Y473000D01*
X23334Y471334D01*
X28332D01*
X11671Y468002D02*
X18335D01*
X11671Y474666D01*
Y476332D01*
X13337Y477998D01*
X16669D01*
X18335Y476332D01*
X36863Y81998D02*
X30198Y72002D01*
Y81998D02*
X36863Y72002D01*
X26866D02*
Y81998D01*
X21868D01*
X20202Y80332D01*
Y77000D01*
X21868Y75334D01*
X26866D01*
X16869Y72002D02*
X13537D01*
X15203D01*
Y81998D01*
X16869Y80332D01*
M02*
