G04*
G04 #@! TF.GenerationSoftware,Altium Limited,Altium Designer,25.4.2 (15)*
G04*
G04 Layer_Physical_Order=2*
G04 Layer_Color=16711680*
%FSLAX44Y44*%
%MOMM*%
G71*
G04*
G04 #@! TF.SameCoordinates,A3258BCF-D6D9-422E-9B80-D07A6E9861EE*
G04*
G04*
G04 #@! TF.FilePolarity,Positive*
G04*
G01*
G75*
%ADD11C,0.5000*%
%ADD14C,0.2000*%
%ADD15C,0.2540*%
%ADD28R,1.6000X1.6000*%
%ADD29C,1.6000*%
%ADD30R,1.6000X1.6000*%
%ADD31C,0.7000*%
%ADD32C,0.8000*%
G36*
X566430Y544714D02*
X567322Y544344D01*
X568125Y543808D01*
X568808Y543125D01*
X569344Y542322D01*
X569714Y541430D01*
X569902Y540483D01*
Y540000D01*
X569903Y10000D01*
Y9517D01*
X569714Y8570D01*
X569345Y7678D01*
X568808Y6875D01*
X568125Y6192D01*
X567322Y5656D01*
X566430Y5286D01*
X565483Y5098D01*
X565000Y5098D01*
X565000Y5098D01*
X565000Y5098D01*
X10000Y5098D01*
X9517D01*
X8570Y5286D01*
X7678Y5656D01*
X6875Y6192D01*
X6192Y6875D01*
X5656Y7678D01*
X5286Y8570D01*
X5098Y9517D01*
Y10000D01*
X5098Y540000D01*
Y540483D01*
X5286Y541430D01*
X5656Y542322D01*
X6192Y543125D01*
X6875Y543808D01*
X7678Y544344D01*
X8570Y544714D01*
X9517Y544902D01*
X10000D01*
X207091D01*
X207474Y543978D01*
X204515Y541020D01*
X204508Y541014D01*
X204326Y540905D01*
X204028Y540776D01*
X203607Y540649D01*
X203061Y540539D01*
X202395Y540457D01*
X201647Y540414D01*
X199705Y540452D01*
X199144Y540498D01*
X198988Y540540D01*
X198627D01*
X198596Y540542D01*
X198575Y540540D01*
X196212D01*
X193532Y539822D01*
X191128Y538434D01*
X189166Y536472D01*
X187778Y534068D01*
X187060Y531388D01*
Y528612D01*
X187778Y525932D01*
X189166Y523528D01*
X191128Y521566D01*
X193532Y520178D01*
X196212Y519460D01*
X198988D01*
X201668Y520178D01*
X204072Y521566D01*
X206034Y523528D01*
X207422Y525932D01*
X208140Y528612D01*
Y529070D01*
X208151Y529108D01*
X208399Y531512D01*
X208715Y533428D01*
X208885Y534166D01*
X209067Y534796D01*
X209247Y535289D01*
X209408Y535634D01*
X209517Y535812D01*
X213349Y539644D01*
X216693D01*
X216952Y538678D01*
X216528Y538434D01*
X214566Y536472D01*
X213178Y534068D01*
X212460Y531388D01*
Y528612D01*
X213178Y525932D01*
X214566Y523528D01*
X216528Y521566D01*
X216744Y521441D01*
X218184Y520255D01*
X218790Y519680D01*
X219307Y519129D01*
X219716Y518628D01*
X220019Y518187D01*
X220222Y517818D01*
X220339Y517531D01*
X220389Y517329D01*
X220391Y517314D01*
Y489495D01*
X186448Y455552D01*
X185665Y454381D01*
X185391Y453000D01*
Y441128D01*
X184657Y440932D01*
X184391Y440915D01*
X182472Y442834D01*
X180068Y444222D01*
X177388Y444940D01*
X174612D01*
X171932Y444222D01*
X169528Y442834D01*
X167566Y440872D01*
X166178Y438468D01*
X165460Y435788D01*
Y433012D01*
X166178Y430332D01*
X167566Y427928D01*
X169528Y425966D01*
X171932Y424578D01*
X174612Y423860D01*
X177388D01*
X180068Y424578D01*
X182472Y425966D01*
X184391Y427885D01*
X184657Y427868D01*
X185391Y427672D01*
Y423495D01*
X182382Y420486D01*
X182197Y420374D01*
X181873Y420229D01*
X181413Y420076D01*
X180822Y419932D01*
X180164Y419816D01*
X177219Y419594D01*
X176068Y419589D01*
X175826Y419540D01*
X174612D01*
X171932Y418822D01*
X169528Y417434D01*
X167566Y415472D01*
X166178Y413068D01*
X165460Y410388D01*
Y407612D01*
X166178Y404932D01*
X167566Y402528D01*
X169528Y400566D01*
X171932Y399178D01*
X174612Y398460D01*
X177388D01*
X180068Y399178D01*
X182472Y400566D01*
X184434Y402528D01*
X185822Y404932D01*
X186540Y407612D01*
Y408826D01*
X186589Y409068D01*
X186595Y410244D01*
X186708Y412298D01*
X186806Y413107D01*
X186932Y413822D01*
X187076Y414413D01*
X187229Y414873D01*
X187374Y415197D01*
X187486Y415382D01*
X191552Y419448D01*
X192335Y420619D01*
X192609Y422000D01*
Y426871D01*
X193609Y427285D01*
X194928Y425966D01*
X197332Y424578D01*
X200012Y423860D01*
X202788D01*
X205468Y424578D01*
X207872Y425966D01*
X209834Y427928D01*
X211222Y430332D01*
X211940Y433012D01*
Y435788D01*
X211222Y438468D01*
X209834Y440872D01*
X207872Y442834D01*
X205468Y444222D01*
X202788Y444940D01*
X200012D01*
X197332Y444222D01*
X194928Y442834D01*
X193609Y441515D01*
X192609Y441929D01*
Y451505D01*
X226552Y485448D01*
X227335Y486619D01*
X227609Y488000D01*
Y517521D01*
X227656Y517717D01*
X227788Y518085D01*
X228010Y518577D01*
X228292Y519109D01*
X230558Y522466D01*
X230931Y522947D01*
X231931Y522605D01*
Y450848D01*
X228905Y447822D01*
X221641Y443648D01*
X221614Y443625D01*
X221582Y443613D01*
X221422Y443465D01*
X220328Y442834D01*
X218366Y440872D01*
X216978Y438468D01*
X216260Y435788D01*
Y433012D01*
X216978Y430332D01*
X218366Y427928D01*
X220328Y425966D01*
X222732Y424578D01*
X225412Y423860D01*
X228188D01*
X230868Y424578D01*
X233272Y425966D01*
X235234Y427928D01*
X236622Y430332D01*
X237340Y433012D01*
Y435788D01*
X236622Y438468D01*
X235714Y440041D01*
X235652Y440209D01*
X235643Y440219D01*
X235638Y440232D01*
X235179Y440966D01*
X234871Y441554D01*
X234663Y442056D01*
X234545Y442461D01*
X234498Y442765D01*
X234497Y442973D01*
X234520Y443109D01*
X234559Y443214D01*
X234627Y443330D01*
X234660Y443369D01*
X238092Y446801D01*
X238875Y447972D01*
X239149Y449353D01*
Y523085D01*
X240149Y523345D01*
X241928Y521566D01*
X244332Y520178D01*
X247012Y519460D01*
X249788D01*
X252468Y520178D01*
X254872Y521566D01*
X256834Y523528D01*
X258222Y525932D01*
X258940Y528612D01*
Y531388D01*
X258222Y534068D01*
X256834Y536472D01*
X254872Y538434D01*
X252468Y539822D01*
X249788Y540540D01*
X247012D01*
X244332Y539822D01*
X241928Y538434D01*
X239966Y536472D01*
X239809Y536200D01*
X238744Y536356D01*
X238092Y537332D01*
X231446Y543978D01*
X231829Y544902D01*
X565000Y544902D01*
X565483D01*
X566430Y544714D01*
D02*
G37*
G36*
X207728Y537714D02*
X207414Y537338D01*
X207122Y536860D01*
X206852Y536281D01*
X206604Y535600D01*
X206378Y534816D01*
X206173Y533931D01*
X205830Y531856D01*
X205575Y529373D01*
X198387Y537961D01*
X199575Y537865D01*
X201695Y537822D01*
X202628Y537876D01*
X203476Y537980D01*
X204239Y538135D01*
X204917Y538340D01*
X205510Y538594D01*
X206017Y538899D01*
X206440Y539254D01*
X207728Y537714D01*
D02*
G37*
G36*
X228459Y523986D02*
X226068Y520443D01*
X225683Y519717D01*
X225384Y519055D01*
X225171Y518457D01*
X225043Y517924D01*
X225000Y517454D01*
X223000Y517200D01*
X222952Y517759D01*
X222806Y518337D01*
X222564Y518934D01*
X222225Y519549D01*
X221789Y520183D01*
X221257Y520835D01*
X220627Y521507D01*
X219901Y522196D01*
X218158Y523632D01*
X229270Y525032D01*
X228459Y523986D01*
D02*
G37*
G36*
X232917Y445316D02*
X232512Y444841D01*
X232209Y444328D01*
X232007Y443778D01*
X231907Y443189D01*
X231908Y442562D01*
X232012Y441898D01*
X232216Y441195D01*
X232523Y440455D01*
X232931Y439676D01*
X233441Y438860D01*
X222931Y441402D01*
X230558Y445786D01*
X232917Y445316D01*
D02*
G37*
G36*
X185714Y417299D02*
X185376Y416897D01*
X185076Y416402D01*
X184813Y415813D01*
X184586Y415131D01*
X184396Y414355D01*
X184243Y413487D01*
X184127Y412525D01*
X184005Y410322D01*
X184000Y409080D01*
X176080Y417000D01*
X177322Y417005D01*
X180487Y417243D01*
X181355Y417396D01*
X182131Y417586D01*
X182813Y417812D01*
X183402Y418076D01*
X183897Y418376D01*
X184300Y418714D01*
X185714Y417299D01*
D02*
G37*
%LPC*%
G36*
X478388Y540540D02*
X478270D01*
Y531270D01*
X487540D01*
Y531388D01*
X486822Y534068D01*
X485434Y536472D01*
X483472Y538434D01*
X481068Y539822D01*
X478388Y540540D01*
D02*
G37*
G36*
X475730D02*
X475612D01*
X472932Y539822D01*
X470528Y538434D01*
X468566Y536472D01*
X467178Y534068D01*
X466460Y531388D01*
Y531270D01*
X475730D01*
Y540540D01*
D02*
G37*
G36*
X81140D02*
X71870D01*
Y531270D01*
X81140D01*
Y540540D01*
D02*
G37*
G36*
X69330D02*
X60060D01*
Y531270D01*
X69330D01*
Y540540D01*
D02*
G37*
G36*
X554588D02*
X551812D01*
X549132Y539822D01*
X546728Y538434D01*
X544766Y536472D01*
X543378Y534068D01*
X542660Y531388D01*
Y528612D01*
X543378Y525932D01*
X544766Y523528D01*
X546728Y521566D01*
X549132Y520178D01*
X551812Y519460D01*
X554588D01*
X557268Y520178D01*
X559672Y521566D01*
X561634Y523528D01*
X563022Y525932D01*
X563740Y528612D01*
Y531388D01*
X563022Y534068D01*
X561634Y536472D01*
X559672Y538434D01*
X557268Y539822D01*
X554588Y540540D01*
D02*
G37*
G36*
X529188D02*
X526412D01*
X523732Y539822D01*
X521328Y538434D01*
X519366Y536472D01*
X517978Y534068D01*
X517260Y531388D01*
Y528612D01*
X517978Y525932D01*
X519366Y523528D01*
X521328Y521566D01*
X523732Y520178D01*
X526412Y519460D01*
X529188D01*
X531868Y520178D01*
X534272Y521566D01*
X536234Y523528D01*
X537622Y525932D01*
X538340Y528612D01*
Y531388D01*
X537622Y534068D01*
X536234Y536472D01*
X534272Y538434D01*
X531868Y539822D01*
X529188Y540540D01*
D02*
G37*
G36*
X503788D02*
X501012D01*
X498332Y539822D01*
X495928Y538434D01*
X493966Y536472D01*
X492578Y534068D01*
X491860Y531388D01*
Y528612D01*
X492578Y525932D01*
X493966Y523528D01*
X495928Y521566D01*
X498332Y520178D01*
X501012Y519460D01*
X503788D01*
X506468Y520178D01*
X508872Y521566D01*
X510834Y523528D01*
X512222Y525932D01*
X512940Y528612D01*
Y531388D01*
X512222Y534068D01*
X510834Y536472D01*
X508872Y538434D01*
X506468Y539822D01*
X503788Y540540D01*
D02*
G37*
G36*
X487540Y528730D02*
X478270D01*
Y519460D01*
X478388D01*
X481068Y520178D01*
X483472Y521566D01*
X485434Y523528D01*
X486822Y525932D01*
X487540Y528612D01*
Y528730D01*
D02*
G37*
G36*
X475730D02*
X466460D01*
Y528612D01*
X467178Y525932D01*
X468566Y523528D01*
X470528Y521566D01*
X472932Y520178D01*
X475612Y519460D01*
X475730D01*
Y528730D01*
D02*
G37*
G36*
X452988Y540540D02*
X450212D01*
X447532Y539822D01*
X445128Y538434D01*
X443166Y536472D01*
X441778Y534068D01*
X441060Y531388D01*
Y528612D01*
X441778Y525932D01*
X443166Y523528D01*
X445128Y521566D01*
X447532Y520178D01*
X450212Y519460D01*
X452988D01*
X455668Y520178D01*
X458072Y521566D01*
X460034Y523528D01*
X461422Y525932D01*
X462140Y528612D01*
Y531388D01*
X461422Y534068D01*
X460034Y536472D01*
X458072Y538434D01*
X455668Y539822D01*
X452988Y540540D01*
D02*
G37*
G36*
X427588D02*
X424812D01*
X422132Y539822D01*
X419728Y538434D01*
X417766Y536472D01*
X416378Y534068D01*
X415660Y531388D01*
Y528612D01*
X416378Y525932D01*
X417766Y523528D01*
X419728Y521566D01*
X422132Y520178D01*
X424812Y519460D01*
X427588D01*
X430268Y520178D01*
X432672Y521566D01*
X434634Y523528D01*
X436022Y525932D01*
X436740Y528612D01*
Y531388D01*
X436022Y534068D01*
X434634Y536472D01*
X432672Y538434D01*
X430268Y539822D01*
X427588Y540540D01*
D02*
G37*
G36*
X402188D02*
X399412D01*
X396732Y539822D01*
X394328Y538434D01*
X392366Y536472D01*
X390978Y534068D01*
X390260Y531388D01*
Y528612D01*
X390978Y525932D01*
X392366Y523528D01*
X394328Y521566D01*
X396732Y520178D01*
X399412Y519460D01*
X402188D01*
X404868Y520178D01*
X407272Y521566D01*
X409234Y523528D01*
X410622Y525932D01*
X411340Y528612D01*
Y531388D01*
X410622Y534068D01*
X409234Y536472D01*
X407272Y538434D01*
X404868Y539822D01*
X402188Y540540D01*
D02*
G37*
G36*
X376788D02*
X374012D01*
X371332Y539822D01*
X368928Y538434D01*
X366966Y536472D01*
X365578Y534068D01*
X364860Y531388D01*
Y528612D01*
X365578Y525932D01*
X366966Y523528D01*
X368928Y521566D01*
X371332Y520178D01*
X374012Y519460D01*
X376788D01*
X379468Y520178D01*
X381872Y521566D01*
X383834Y523528D01*
X385222Y525932D01*
X385940Y528612D01*
Y531388D01*
X385222Y534068D01*
X383834Y536472D01*
X381872Y538434D01*
X379468Y539822D01*
X376788Y540540D01*
D02*
G37*
G36*
X351388D02*
X348612D01*
X345932Y539822D01*
X343528Y538434D01*
X341566Y536472D01*
X340178Y534068D01*
X339460Y531388D01*
Y528612D01*
X340178Y525932D01*
X341566Y523528D01*
X343528Y521566D01*
X345932Y520178D01*
X348612Y519460D01*
X351388D01*
X354068Y520178D01*
X356472Y521566D01*
X358434Y523528D01*
X359822Y525932D01*
X360540Y528612D01*
Y531388D01*
X359822Y534068D01*
X358434Y536472D01*
X356472Y538434D01*
X354068Y539822D01*
X351388Y540540D01*
D02*
G37*
G36*
X325988D02*
X323212D01*
X320532Y539822D01*
X318128Y538434D01*
X316166Y536472D01*
X314778Y534068D01*
X314060Y531388D01*
Y528612D01*
X314778Y525932D01*
X316166Y523528D01*
X318128Y521566D01*
X320532Y520178D01*
X323212Y519460D01*
X325988D01*
X328668Y520178D01*
X331072Y521566D01*
X333034Y523528D01*
X334422Y525932D01*
X335140Y528612D01*
Y531388D01*
X334422Y534068D01*
X333034Y536472D01*
X331072Y538434D01*
X328668Y539822D01*
X325988Y540540D01*
D02*
G37*
G36*
X300588D02*
X297812D01*
X295132Y539822D01*
X292728Y538434D01*
X290766Y536472D01*
X289378Y534068D01*
X288660Y531388D01*
Y528612D01*
X289378Y525932D01*
X290766Y523528D01*
X292728Y521566D01*
X295132Y520178D01*
X297812Y519460D01*
X300588D01*
X303268Y520178D01*
X305672Y521566D01*
X307634Y523528D01*
X309022Y525932D01*
X309740Y528612D01*
Y531388D01*
X309022Y534068D01*
X307634Y536472D01*
X305672Y538434D01*
X303268Y539822D01*
X300588Y540540D01*
D02*
G37*
G36*
X275188D02*
X272412D01*
X269732Y539822D01*
X267328Y538434D01*
X265366Y536472D01*
X263978Y534068D01*
X263260Y531388D01*
Y528612D01*
X263978Y525932D01*
X265366Y523528D01*
X267328Y521566D01*
X269732Y520178D01*
X272412Y519460D01*
X275188D01*
X277868Y520178D01*
X280272Y521566D01*
X282234Y523528D01*
X283622Y525932D01*
X284340Y528612D01*
Y531388D01*
X283622Y534068D01*
X282234Y536472D01*
X280272Y538434D01*
X277868Y539822D01*
X275188Y540540D01*
D02*
G37*
G36*
X173588D02*
X170812D01*
X168132Y539822D01*
X165728Y538434D01*
X163766Y536472D01*
X162378Y534068D01*
X161660Y531388D01*
Y528612D01*
X162378Y525932D01*
X163766Y523528D01*
X165728Y521566D01*
X168132Y520178D01*
X170812Y519460D01*
X173588D01*
X176268Y520178D01*
X178672Y521566D01*
X180634Y523528D01*
X182022Y525932D01*
X182740Y528612D01*
Y531388D01*
X182022Y534068D01*
X180634Y536472D01*
X178672Y538434D01*
X176268Y539822D01*
X173588Y540540D01*
D02*
G37*
G36*
X148188D02*
X145412D01*
X142732Y539822D01*
X140328Y538434D01*
X138366Y536472D01*
X136978Y534068D01*
X136260Y531388D01*
Y528612D01*
X136978Y525932D01*
X138366Y523528D01*
X140328Y521566D01*
X142732Y520178D01*
X145412Y519460D01*
X148188D01*
X150868Y520178D01*
X153272Y521566D01*
X155234Y523528D01*
X156622Y525932D01*
X157340Y528612D01*
Y531388D01*
X156622Y534068D01*
X155234Y536472D01*
X153272Y538434D01*
X150868Y539822D01*
X148188Y540540D01*
D02*
G37*
G36*
X122788D02*
X120012D01*
X117332Y539822D01*
X114928Y538434D01*
X112966Y536472D01*
X111578Y534068D01*
X110860Y531388D01*
Y528612D01*
X111578Y525932D01*
X112966Y523528D01*
X114928Y521566D01*
X117332Y520178D01*
X120012Y519460D01*
X122788D01*
X125468Y520178D01*
X127872Y521566D01*
X129834Y523528D01*
X131222Y525932D01*
X131940Y528612D01*
Y531388D01*
X131222Y534068D01*
X129834Y536472D01*
X127872Y538434D01*
X125468Y539822D01*
X122788Y540540D01*
D02*
G37*
G36*
X97388D02*
X94612D01*
X91932Y539822D01*
X89528Y538434D01*
X87566Y536472D01*
X86178Y534068D01*
X85460Y531388D01*
Y528612D01*
X86178Y525932D01*
X87566Y523528D01*
X89528Y521566D01*
X91932Y520178D01*
X94612Y519460D01*
X97388D01*
X100068Y520178D01*
X102472Y521566D01*
X104434Y523528D01*
X105822Y525932D01*
X106540Y528612D01*
Y531388D01*
X105822Y534068D01*
X104434Y536472D01*
X102472Y538434D01*
X100068Y539822D01*
X97388Y540540D01*
D02*
G37*
G36*
X81140Y528730D02*
X71870D01*
Y519460D01*
X81140D01*
Y528730D01*
D02*
G37*
G36*
X69330D02*
X60060D01*
Y519460D01*
X69330D01*
Y528730D01*
D02*
G37*
G36*
X198788Y510540D02*
X198670D01*
Y501270D01*
X207940D01*
Y501388D01*
X207222Y504068D01*
X205834Y506472D01*
X203872Y508434D01*
X201468Y509822D01*
X198788Y510540D01*
D02*
G37*
G36*
X196130D02*
X196012D01*
X193332Y509822D01*
X190928Y508434D01*
X188966Y506472D01*
X187578Y504068D01*
X186860Y501388D01*
Y501270D01*
X196130D01*
Y510540D01*
D02*
G37*
G36*
X207940Y498730D02*
X198670D01*
Y489460D01*
X198788D01*
X201468Y490178D01*
X203872Y491566D01*
X205834Y493528D01*
X207222Y495932D01*
X207940Y498612D01*
Y498730D01*
D02*
G37*
G36*
X196130D02*
X186860D01*
Y498612D01*
X187578Y495932D01*
X188966Y493528D01*
X190928Y491566D01*
X193332Y490178D01*
X196012Y489460D01*
X196130D01*
Y498730D01*
D02*
G37*
G36*
X173388Y510540D02*
X170612D01*
X167932Y509822D01*
X165528Y508434D01*
X163566Y506472D01*
X162178Y504068D01*
X161460Y501388D01*
Y498612D01*
X162178Y495932D01*
X163566Y493528D01*
X165528Y491566D01*
X167932Y490178D01*
X170612Y489460D01*
X173388D01*
X176068Y490178D01*
X178472Y491566D01*
X180434Y493528D01*
X181822Y495932D01*
X182540Y498612D01*
Y501388D01*
X181822Y504068D01*
X180434Y506472D01*
X178472Y508434D01*
X176068Y509822D01*
X173388Y510540D01*
D02*
G37*
G36*
X147988D02*
X145212D01*
X142532Y509822D01*
X140128Y508434D01*
X138166Y506472D01*
X136778Y504068D01*
X136060Y501388D01*
Y498612D01*
X136778Y495932D01*
X138166Y493528D01*
X140128Y491566D01*
X142532Y490178D01*
X145212Y489460D01*
X147988D01*
X150668Y490178D01*
X153072Y491566D01*
X155034Y493528D01*
X156422Y495932D01*
X157140Y498612D01*
Y501388D01*
X156422Y504068D01*
X155034Y506472D01*
X153072Y508434D01*
X150668Y509822D01*
X147988Y510540D01*
D02*
G37*
G36*
X122588D02*
X119812D01*
X117132Y509822D01*
X114728Y508434D01*
X112766Y506472D01*
X111378Y504068D01*
X110660Y501388D01*
Y498612D01*
X111378Y495932D01*
X112766Y493528D01*
X114728Y491566D01*
X117132Y490178D01*
X119812Y489460D01*
X122588D01*
X125268Y490178D01*
X127672Y491566D01*
X129634Y493528D01*
X131022Y495932D01*
X131740Y498612D01*
Y501388D01*
X131022Y504068D01*
X129634Y506472D01*
X127672Y508434D01*
X125268Y509822D01*
X122588Y510540D01*
D02*
G37*
G36*
X97188D02*
X94412D01*
X91732Y509822D01*
X89328Y508434D01*
X87366Y506472D01*
X85978Y504068D01*
X85260Y501388D01*
Y498612D01*
X85978Y495932D01*
X87366Y493528D01*
X89328Y491566D01*
X91732Y490178D01*
X94412Y489460D01*
X97188D01*
X99868Y490178D01*
X102272Y491566D01*
X104234Y493528D01*
X105622Y495932D01*
X106340Y498612D01*
Y501388D01*
X105622Y504068D01*
X104234Y506472D01*
X102272Y508434D01*
X99868Y509822D01*
X97188Y510540D01*
D02*
G37*
G36*
X71788D02*
X69012D01*
X66332Y509822D01*
X63928Y508434D01*
X61966Y506472D01*
X60578Y504068D01*
X59860Y501388D01*
Y498612D01*
X60578Y495932D01*
X61966Y493528D01*
X63928Y491566D01*
X66332Y490178D01*
X69012Y489460D01*
X71788D01*
X74468Y490178D01*
X76872Y491566D01*
X78834Y493528D01*
X80222Y495932D01*
X80940Y498612D01*
Y501388D01*
X80222Y504068D01*
X78834Y506472D01*
X76872Y508434D01*
X74468Y509822D01*
X71788Y510540D01*
D02*
G37*
G36*
X46388D02*
X43612D01*
X40932Y509822D01*
X38528Y508434D01*
X36566Y506472D01*
X35178Y504068D01*
X34460Y501388D01*
Y498612D01*
X35178Y495932D01*
X36566Y493528D01*
X38528Y491566D01*
X40932Y490178D01*
X43612Y489460D01*
X46388D01*
X49068Y490178D01*
X51472Y491566D01*
X53434Y493528D01*
X54822Y495932D01*
X55540Y498612D01*
Y501388D01*
X54822Y504068D01*
X53434Y506472D01*
X51472Y508434D01*
X49068Y509822D01*
X46388Y510540D01*
D02*
G37*
G36*
X30140D02*
X9060D01*
Y489460D01*
X30140D01*
Y510540D01*
D02*
G37*
G36*
X262740Y444940D02*
X241660D01*
Y423860D01*
X262740D01*
Y444940D01*
D02*
G37*
G36*
X151988D02*
X149212D01*
X146532Y444222D01*
X144128Y442834D01*
X142166Y440872D01*
X140778Y438468D01*
X140060Y435788D01*
Y433012D01*
X140778Y430332D01*
X142166Y427928D01*
X144128Y425966D01*
X146532Y424578D01*
X149212Y423860D01*
X151988D01*
X154668Y424578D01*
X157072Y425966D01*
X159034Y427928D01*
X160422Y430332D01*
X161140Y433012D01*
Y435788D01*
X160422Y438468D01*
X159034Y440872D01*
X157072Y442834D01*
X154668Y444222D01*
X151988Y444940D01*
D02*
G37*
G36*
X253588Y419540D02*
X253470D01*
Y410270D01*
X262740D01*
Y410388D01*
X262022Y413068D01*
X260634Y415472D01*
X258672Y417434D01*
X256268Y418822D01*
X253588Y419540D01*
D02*
G37*
G36*
X250930D02*
X250812D01*
X248132Y418822D01*
X245728Y417434D01*
X243766Y415472D01*
X242378Y413068D01*
X241660Y410388D01*
Y410270D01*
X250930D01*
Y419540D01*
D02*
G37*
G36*
X151988D02*
X151870D01*
Y410270D01*
X161140D01*
Y410388D01*
X160422Y413068D01*
X159034Y415472D01*
X157072Y417434D01*
X154668Y418822D01*
X151988Y419540D01*
D02*
G37*
G36*
X149330D02*
X149212D01*
X146532Y418822D01*
X144128Y417434D01*
X142166Y415472D01*
X140778Y413068D01*
X140060Y410388D01*
Y410270D01*
X149330D01*
Y419540D01*
D02*
G37*
G36*
X262740Y407730D02*
X253470D01*
Y398460D01*
X253588D01*
X256268Y399178D01*
X258672Y400566D01*
X260634Y402528D01*
X262022Y404932D01*
X262740Y407612D01*
Y407730D01*
D02*
G37*
G36*
X250930D02*
X241660D01*
Y407612D01*
X242378Y404932D01*
X243766Y402528D01*
X245728Y400566D01*
X248132Y399178D01*
X250812Y398460D01*
X250930D01*
Y407730D01*
D02*
G37*
G36*
X228188Y419540D02*
X225412D01*
X222732Y418822D01*
X220328Y417434D01*
X218366Y415472D01*
X216978Y413068D01*
X216260Y410388D01*
Y407612D01*
X216978Y404932D01*
X218366Y402528D01*
X220328Y400566D01*
X222732Y399178D01*
X225412Y398460D01*
X228188D01*
X230868Y399178D01*
X233272Y400566D01*
X235234Y402528D01*
X236622Y404932D01*
X237340Y407612D01*
Y410388D01*
X236622Y413068D01*
X235234Y415472D01*
X233272Y417434D01*
X230868Y418822D01*
X228188Y419540D01*
D02*
G37*
G36*
X161140Y407730D02*
X151870D01*
Y398460D01*
X151988D01*
X154668Y399178D01*
X157072Y400566D01*
X159034Y402528D01*
X160422Y404932D01*
X161140Y407612D01*
Y407730D01*
D02*
G37*
G36*
X149330D02*
X140060D01*
Y407612D01*
X140778Y404932D01*
X142166Y402528D01*
X144128Y400566D01*
X146532Y399178D01*
X149212Y398460D01*
X149330D01*
Y407730D01*
D02*
G37*
G36*
X381388Y330940D02*
X378612D01*
X375932Y330222D01*
X373528Y328834D01*
X371566Y326872D01*
X370178Y324468D01*
X369460Y321788D01*
Y319012D01*
X370178Y316332D01*
X371566Y313928D01*
X373528Y311966D01*
X375932Y310578D01*
X378612Y309860D01*
X381388D01*
X384068Y310578D01*
X386472Y311966D01*
X388434Y313928D01*
X389822Y316332D01*
X390540Y319012D01*
Y321788D01*
X389822Y324468D01*
X388434Y326872D01*
X386472Y328834D01*
X384068Y330222D01*
X381388Y330940D01*
D02*
G37*
G36*
X530861Y322540D02*
X529139D01*
X527476Y322094D01*
X525984Y321233D01*
X524767Y320016D01*
X523906Y318524D01*
X523460Y316861D01*
Y315139D01*
X523906Y313476D01*
X524767Y311984D01*
X525823Y310928D01*
X514505Y299609D01*
X420144D01*
X420060Y299632D01*
X419944Y299675D01*
X419799Y299744D01*
X419626Y299844D01*
X419460Y299956D01*
X418939Y300387D01*
X418662Y300657D01*
X418464Y300785D01*
X418016Y301233D01*
X416524Y302094D01*
X414861Y302540D01*
X413139D01*
X411476Y302094D01*
X409984Y301233D01*
X408767Y300016D01*
X407906Y298524D01*
X407460Y296861D01*
Y295139D01*
X407906Y293476D01*
X408767Y291984D01*
X409984Y290767D01*
X411476Y289906D01*
X413139Y289460D01*
X414861D01*
X416524Y289906D01*
X418016Y290767D01*
X418464Y291215D01*
X418662Y291343D01*
X418965Y291638D01*
X419207Y291850D01*
X419428Y292022D01*
X419626Y292156D01*
X419799Y292256D01*
X419944Y292325D01*
X420061Y292368D01*
X420144Y292391D01*
X516000D01*
X517381Y292665D01*
X518552Y293448D01*
X532724Y307619D01*
X533506Y308790D01*
X533781Y310172D01*
Y310466D01*
X533782Y310476D01*
X533799Y310571D01*
X533814Y310626D01*
X533871Y310670D01*
X533894Y310696D01*
X534016Y310767D01*
X535233Y311984D01*
X536094Y313476D01*
X536540Y315139D01*
Y316861D01*
X536094Y318524D01*
X535233Y320016D01*
X534016Y321233D01*
X532524Y322094D01*
X530861Y322540D01*
D02*
G37*
G36*
X390540Y305540D02*
X369460D01*
Y284460D01*
X390540D01*
Y305540D01*
D02*
G37*
G36*
X347861Y358540D02*
X346139D01*
X344476Y358094D01*
X342984Y357233D01*
X341767Y356016D01*
X340906Y354524D01*
X340460Y352861D01*
Y351139D01*
X340906Y349476D01*
X341767Y347984D01*
X341839Y347912D01*
X341861Y347569D01*
Y270359D01*
X341460Y268861D01*
Y267139D01*
X341906Y265476D01*
X342767Y263984D01*
X343984Y262767D01*
X345476Y261906D01*
X347139Y261460D01*
X348861D01*
X350524Y261906D01*
X352016Y262767D01*
X353233Y263984D01*
X354094Y265476D01*
X354540Y267139D01*
Y268861D01*
X354094Y270524D01*
X353233Y272016D01*
X352139Y273110D01*
Y347890D01*
X352233Y347984D01*
X353094Y349476D01*
X353540Y351139D01*
Y352861D01*
X353094Y354524D01*
X352233Y356016D01*
X351016Y357233D01*
X349524Y358094D01*
X347861Y358540D01*
D02*
G37*
G36*
X161388Y160540D02*
X161270D01*
Y151270D01*
X170540D01*
Y151388D01*
X169822Y154068D01*
X168434Y156472D01*
X166472Y158434D01*
X164068Y159822D01*
X161388Y160540D01*
D02*
G37*
G36*
X158730D02*
X158612D01*
X155932Y159822D01*
X153528Y158434D01*
X151566Y156472D01*
X150178Y154068D01*
X149460Y151388D01*
Y151270D01*
X158730D01*
Y160540D01*
D02*
G37*
G36*
X279388Y98540D02*
X276612D01*
X273932Y97822D01*
X271528Y96434D01*
X269566Y94472D01*
X268178Y92068D01*
X267460Y89388D01*
Y86612D01*
X268178Y83932D01*
X269566Y81528D01*
X271528Y79566D01*
X273932Y78178D01*
X276612Y77460D01*
X279388D01*
X282068Y78178D01*
X284472Y79566D01*
X286434Y81528D01*
X287822Y83932D01*
X288540Y86612D01*
Y89388D01*
X287822Y92068D01*
X286434Y94472D01*
X284472Y96434D01*
X282068Y97822D01*
X279388Y98540D01*
D02*
G37*
G36*
X263140D02*
X242060D01*
Y77460D01*
X263140D01*
Y98540D01*
D02*
G37*
G36*
X202788Y419540D02*
X200012D01*
X197332Y418822D01*
X194928Y417434D01*
X192966Y415472D01*
X191578Y413068D01*
X190860Y410388D01*
Y407612D01*
X191578Y404932D01*
X192966Y402528D01*
X193824Y401670D01*
X193961Y401464D01*
X194788Y400629D01*
X196160Y399096D01*
X196663Y398456D01*
X197080Y397860D01*
X197395Y397340D01*
X197613Y396907D01*
X197739Y396576D01*
X197791Y396365D01*
Y341895D01*
X107108Y251212D01*
X106325Y250041D01*
X106051Y248660D01*
Y55325D01*
X105051Y55057D01*
X104234Y56472D01*
X102272Y58434D01*
X99868Y59822D01*
X97188Y60540D01*
X94412D01*
X91732Y59822D01*
X89328Y58434D01*
X87366Y56472D01*
X85978Y54068D01*
X85260Y51388D01*
Y48612D01*
X85978Y45932D01*
X87366Y43528D01*
X89328Y41566D01*
X91732Y40178D01*
X94412Y39460D01*
X97188D01*
X99868Y40178D01*
X102272Y41566D01*
X104234Y43528D01*
X105051Y44943D01*
X106051Y44675D01*
Y31740D01*
X106325Y30359D01*
X107108Y29188D01*
X109914Y26382D01*
X110026Y26197D01*
X110171Y25873D01*
X110324Y25413D01*
X110468Y24822D01*
X110584Y24164D01*
X110806Y21219D01*
X110811Y20069D01*
X110860Y19826D01*
Y18612D01*
X111578Y15932D01*
X112966Y13528D01*
X114928Y11566D01*
X117332Y10178D01*
X120012Y9460D01*
X122788D01*
X125468Y10178D01*
X127872Y11566D01*
X129834Y13528D01*
X131222Y15932D01*
X131940Y18612D01*
Y21388D01*
X131222Y24068D01*
X129834Y26472D01*
X127872Y28434D01*
X125468Y29822D01*
X122788Y30540D01*
X121574D01*
X121332Y30589D01*
X120156Y30595D01*
X118102Y30708D01*
X117293Y30806D01*
X116578Y30932D01*
X115987Y31076D01*
X115527Y31229D01*
X115203Y31374D01*
X115018Y31486D01*
X113269Y33235D01*
Y41718D01*
X114193Y42101D01*
X114728Y41566D01*
X117132Y40178D01*
X119812Y39460D01*
X119930D01*
Y50000D01*
X121200D01*
Y51270D01*
X131740D01*
Y51388D01*
X131022Y54068D01*
X129634Y56472D01*
X128300Y57806D01*
X162747Y92253D01*
X163589Y93513D01*
X163885Y95000D01*
Y137500D01*
X163940Y137754D01*
X164063Y138109D01*
X164266Y138547D01*
X164557Y139057D01*
X164940Y139630D01*
X165400Y140237D01*
X166674Y141688D01*
X167444Y142468D01*
X167578Y142672D01*
X168434Y143528D01*
X169822Y145932D01*
X170540Y148612D01*
Y148730D01*
X160000D01*
X149460D01*
Y148612D01*
X150178Y145932D01*
X151566Y143528D01*
X152422Y142672D01*
X152556Y142468D01*
X153326Y141688D01*
X154600Y140238D01*
X155060Y139630D01*
X155443Y139057D01*
X155734Y138546D01*
X155936Y138109D01*
X156060Y137754D01*
X156115Y137500D01*
Y96609D01*
X121029Y61522D01*
X120372Y60540D01*
X119812D01*
X117132Y59822D01*
X114728Y58434D01*
X114193Y57899D01*
X113269Y58282D01*
Y247165D01*
X203952Y337848D01*
X204735Y339019D01*
X205009Y340400D01*
X205009Y340400D01*
Y396365D01*
X205061Y396576D01*
X205187Y396907D01*
X205404Y397340D01*
X205720Y397860D01*
X206103Y398407D01*
X208030Y400647D01*
X208839Y401464D01*
X208976Y401670D01*
X209834Y402528D01*
X211222Y404932D01*
X211940Y407612D01*
Y410388D01*
X211222Y413068D01*
X209834Y415472D01*
X207872Y417434D01*
X205468Y418822D01*
X202788Y419540D01*
D02*
G37*
G36*
X198788Y60540D02*
X196012D01*
X193332Y59822D01*
X190928Y58434D01*
X188966Y56472D01*
X187578Y54068D01*
X186860Y51388D01*
Y48612D01*
X187578Y45932D01*
X188966Y43528D01*
X190928Y41566D01*
X193332Y40178D01*
X196012Y39460D01*
X198788D01*
X201468Y40178D01*
X203872Y41566D01*
X205834Y43528D01*
X207222Y45932D01*
X207940Y48612D01*
Y51388D01*
X207222Y54068D01*
X205834Y56472D01*
X203872Y58434D01*
X201468Y59822D01*
X198788Y60540D01*
D02*
G37*
G36*
X173388D02*
X170612D01*
X167932Y59822D01*
X165528Y58434D01*
X163566Y56472D01*
X162178Y54068D01*
X161460Y51388D01*
Y48612D01*
X162178Y45932D01*
X163566Y43528D01*
X165528Y41566D01*
X167932Y40178D01*
X170612Y39460D01*
X173388D01*
X176068Y40178D01*
X178472Y41566D01*
X180434Y43528D01*
X181822Y45932D01*
X182540Y48612D01*
Y51388D01*
X181822Y54068D01*
X180434Y56472D01*
X178472Y58434D01*
X176068Y59822D01*
X173388Y60540D01*
D02*
G37*
G36*
X195940Y160540D02*
X174860D01*
Y139460D01*
X181250D01*
X181515Y138929D01*
Y100009D01*
X144575Y63069D01*
X143733Y61809D01*
X143438Y60322D01*
Y60064D01*
X142532Y59822D01*
X140128Y58434D01*
X138166Y56472D01*
X136778Y54068D01*
X136060Y51388D01*
Y48612D01*
X136778Y45932D01*
X138166Y43528D01*
X140128Y41566D01*
X142532Y40178D01*
X145212Y39460D01*
X147988D01*
X150668Y40178D01*
X153072Y41566D01*
X155034Y43528D01*
X156422Y45932D01*
X157140Y48612D01*
Y51388D01*
X156422Y54068D01*
X155034Y56472D01*
X153072Y58434D01*
X152424Y58808D01*
X152293Y59800D01*
X188147Y95653D01*
X188989Y96913D01*
X189285Y98400D01*
Y138929D01*
X189550Y139460D01*
X195940D01*
Y160540D01*
D02*
G37*
G36*
X131740Y48730D02*
X122470D01*
Y39460D01*
X122588D01*
X125268Y40178D01*
X127672Y41566D01*
X129634Y43528D01*
X131022Y45932D01*
X131740Y48612D01*
Y48730D01*
D02*
G37*
G36*
X71788Y60540D02*
X69012D01*
X66332Y59822D01*
X63928Y58434D01*
X61966Y56472D01*
X60578Y54068D01*
X59860Y51388D01*
Y48612D01*
X60578Y45932D01*
X61966Y43528D01*
X63928Y41566D01*
X66332Y40178D01*
X69012Y39460D01*
X71788D01*
X74468Y40178D01*
X76872Y41566D01*
X78834Y43528D01*
X80222Y45932D01*
X80940Y48612D01*
Y51388D01*
X80222Y54068D01*
X78834Y56472D01*
X76872Y58434D01*
X74468Y59822D01*
X71788Y60540D01*
D02*
G37*
G36*
X46388D02*
X43612D01*
X40932Y59822D01*
X38528Y58434D01*
X36566Y56472D01*
X35178Y54068D01*
X34460Y51388D01*
Y48612D01*
X35178Y45932D01*
X36566Y43528D01*
X38528Y41566D01*
X40932Y40178D01*
X43612Y39460D01*
X46388D01*
X49068Y40178D01*
X51472Y41566D01*
X53434Y43528D01*
X54822Y45932D01*
X55540Y48612D01*
Y51388D01*
X54822Y54068D01*
X53434Y56472D01*
X51472Y58434D01*
X49068Y59822D01*
X46388Y60540D01*
D02*
G37*
G36*
X30140D02*
X9060D01*
Y39460D01*
X30140D01*
Y60540D01*
D02*
G37*
G36*
X554588Y30540D02*
X551812D01*
X549132Y29822D01*
X546728Y28434D01*
X544766Y26472D01*
X543378Y24068D01*
X542660Y21388D01*
Y18612D01*
X543378Y15932D01*
X544766Y13528D01*
X546728Y11566D01*
X549132Y10178D01*
X551812Y9460D01*
X554588D01*
X557268Y10178D01*
X559672Y11566D01*
X561634Y13528D01*
X563022Y15932D01*
X563740Y18612D01*
Y21388D01*
X563022Y24068D01*
X561634Y26472D01*
X559672Y28434D01*
X557268Y29822D01*
X554588Y30540D01*
D02*
G37*
G36*
X529188D02*
X526412D01*
X523732Y29822D01*
X521328Y28434D01*
X519366Y26472D01*
X517978Y24068D01*
X517260Y21388D01*
Y18612D01*
X517978Y15932D01*
X519366Y13528D01*
X521328Y11566D01*
X523732Y10178D01*
X526412Y9460D01*
X529188D01*
X531868Y10178D01*
X534272Y11566D01*
X536234Y13528D01*
X537622Y15932D01*
X538340Y18612D01*
Y21388D01*
X537622Y24068D01*
X536234Y26472D01*
X534272Y28434D01*
X531868Y29822D01*
X529188Y30540D01*
D02*
G37*
G36*
X503788D02*
X501012D01*
X498332Y29822D01*
X495928Y28434D01*
X493966Y26472D01*
X492578Y24068D01*
X491860Y21388D01*
Y18612D01*
X492578Y15932D01*
X493966Y13528D01*
X495928Y11566D01*
X498332Y10178D01*
X501012Y9460D01*
X503788D01*
X506468Y10178D01*
X508872Y11566D01*
X510834Y13528D01*
X512222Y15932D01*
X512940Y18612D01*
Y21388D01*
X512222Y24068D01*
X510834Y26472D01*
X508872Y28434D01*
X506468Y29822D01*
X503788Y30540D01*
D02*
G37*
G36*
X478388D02*
X475612D01*
X472932Y29822D01*
X470528Y28434D01*
X468566Y26472D01*
X467178Y24068D01*
X466460Y21388D01*
Y18612D01*
X467178Y15932D01*
X468566Y13528D01*
X470528Y11566D01*
X472932Y10178D01*
X475612Y9460D01*
X478388D01*
X481068Y10178D01*
X483472Y11566D01*
X485434Y13528D01*
X486822Y15932D01*
X487540Y18612D01*
Y21388D01*
X486822Y24068D01*
X485434Y26472D01*
X483472Y28434D01*
X481068Y29822D01*
X478388Y30540D01*
D02*
G37*
G36*
X452988D02*
X450212D01*
X447532Y29822D01*
X445128Y28434D01*
X443166Y26472D01*
X441778Y24068D01*
X441060Y21388D01*
Y18612D01*
X441778Y15932D01*
X443166Y13528D01*
X445128Y11566D01*
X447532Y10178D01*
X450212Y9460D01*
X452988D01*
X455668Y10178D01*
X458072Y11566D01*
X460034Y13528D01*
X461422Y15932D01*
X462140Y18612D01*
Y21388D01*
X461422Y24068D01*
X460034Y26472D01*
X458072Y28434D01*
X455668Y29822D01*
X452988Y30540D01*
D02*
G37*
G36*
X427588D02*
X424812D01*
X422132Y29822D01*
X419728Y28434D01*
X417766Y26472D01*
X416378Y24068D01*
X415660Y21388D01*
Y18612D01*
X416378Y15932D01*
X417766Y13528D01*
X419728Y11566D01*
X422132Y10178D01*
X424812Y9460D01*
X427588D01*
X430268Y10178D01*
X432672Y11566D01*
X434634Y13528D01*
X436022Y15932D01*
X436740Y18612D01*
Y21388D01*
X436022Y24068D01*
X434634Y26472D01*
X432672Y28434D01*
X430268Y29822D01*
X427588Y30540D01*
D02*
G37*
G36*
X402188D02*
X399412D01*
X396732Y29822D01*
X394328Y28434D01*
X392366Y26472D01*
X390978Y24068D01*
X390260Y21388D01*
Y18612D01*
X390978Y15932D01*
X392366Y13528D01*
X394328Y11566D01*
X396732Y10178D01*
X399412Y9460D01*
X402188D01*
X404868Y10178D01*
X407272Y11566D01*
X409234Y13528D01*
X410622Y15932D01*
X411340Y18612D01*
Y21388D01*
X410622Y24068D01*
X409234Y26472D01*
X407272Y28434D01*
X404868Y29822D01*
X402188Y30540D01*
D02*
G37*
G36*
X376788D02*
X374012D01*
X371332Y29822D01*
X368928Y28434D01*
X366966Y26472D01*
X365578Y24068D01*
X364860Y21388D01*
Y18612D01*
X365578Y15932D01*
X366966Y13528D01*
X368928Y11566D01*
X371332Y10178D01*
X374012Y9460D01*
X376788D01*
X379468Y10178D01*
X381872Y11566D01*
X383834Y13528D01*
X385222Y15932D01*
X385940Y18612D01*
Y21388D01*
X385222Y24068D01*
X383834Y26472D01*
X381872Y28434D01*
X379468Y29822D01*
X376788Y30540D01*
D02*
G37*
G36*
X351388D02*
X348612D01*
X345932Y29822D01*
X343528Y28434D01*
X341566Y26472D01*
X340178Y24068D01*
X339460Y21388D01*
Y18612D01*
X340178Y15932D01*
X341566Y13528D01*
X343528Y11566D01*
X345932Y10178D01*
X348612Y9460D01*
X351388D01*
X354068Y10178D01*
X356472Y11566D01*
X358434Y13528D01*
X359822Y15932D01*
X360540Y18612D01*
Y21388D01*
X359822Y24068D01*
X358434Y26472D01*
X356472Y28434D01*
X354068Y29822D01*
X351388Y30540D01*
D02*
G37*
G36*
X325988D02*
X323212D01*
X320532Y29822D01*
X318128Y28434D01*
X316166Y26472D01*
X314778Y24068D01*
X314060Y21388D01*
Y18612D01*
X314778Y15932D01*
X316166Y13528D01*
X318128Y11566D01*
X320532Y10178D01*
X323212Y9460D01*
X325988D01*
X328668Y10178D01*
X331072Y11566D01*
X333034Y13528D01*
X334422Y15932D01*
X335140Y18612D01*
Y21388D01*
X334422Y24068D01*
X333034Y26472D01*
X331072Y28434D01*
X328668Y29822D01*
X325988Y30540D01*
D02*
G37*
G36*
X300588D02*
X297812D01*
X295132Y29822D01*
X292728Y28434D01*
X290766Y26472D01*
X289378Y24068D01*
X288660Y21388D01*
Y18612D01*
X289378Y15932D01*
X290766Y13528D01*
X292728Y11566D01*
X295132Y10178D01*
X297812Y9460D01*
X300588D01*
X303268Y10178D01*
X305672Y11566D01*
X307634Y13528D01*
X309022Y15932D01*
X309740Y18612D01*
Y21388D01*
X309022Y24068D01*
X307634Y26472D01*
X305672Y28434D01*
X303268Y29822D01*
X300588Y30540D01*
D02*
G37*
G36*
X275188D02*
X272412D01*
X269732Y29822D01*
X267328Y28434D01*
X265366Y26472D01*
X263978Y24068D01*
X263260Y21388D01*
Y18612D01*
X263978Y15932D01*
X265366Y13528D01*
X267328Y11566D01*
X269732Y10178D01*
X272412Y9460D01*
X275188D01*
X277868Y10178D01*
X280272Y11566D01*
X282234Y13528D01*
X283622Y15932D01*
X284340Y18612D01*
Y21388D01*
X283622Y24068D01*
X282234Y26472D01*
X280272Y28434D01*
X277868Y29822D01*
X275188Y30540D01*
D02*
G37*
G36*
X249788D02*
X247012D01*
X244332Y29822D01*
X241928Y28434D01*
X239966Y26472D01*
X238578Y24068D01*
X237860Y21388D01*
Y18612D01*
X238578Y15932D01*
X239966Y13528D01*
X241928Y11566D01*
X244332Y10178D01*
X247012Y9460D01*
X249788D01*
X252468Y10178D01*
X254872Y11566D01*
X256834Y13528D01*
X258222Y15932D01*
X258940Y18612D01*
Y21388D01*
X258222Y24068D01*
X256834Y26472D01*
X254872Y28434D01*
X252468Y29822D01*
X249788Y30540D01*
D02*
G37*
G36*
X224388D02*
X221612D01*
X218932Y29822D01*
X216528Y28434D01*
X214566Y26472D01*
X213178Y24068D01*
X212460Y21388D01*
Y18612D01*
X213178Y15932D01*
X214566Y13528D01*
X216528Y11566D01*
X218932Y10178D01*
X221612Y9460D01*
X224388D01*
X227068Y10178D01*
X229472Y11566D01*
X231434Y13528D01*
X232822Y15932D01*
X233540Y18612D01*
Y21388D01*
X232822Y24068D01*
X231434Y26472D01*
X229472Y28434D01*
X227068Y29822D01*
X224388Y30540D01*
D02*
G37*
G36*
X198988D02*
X196212D01*
X193532Y29822D01*
X191128Y28434D01*
X189166Y26472D01*
X187778Y24068D01*
X187060Y21388D01*
Y18612D01*
X187778Y15932D01*
X189166Y13528D01*
X191128Y11566D01*
X193532Y10178D01*
X196212Y9460D01*
X198988D01*
X201668Y10178D01*
X204072Y11566D01*
X206034Y13528D01*
X207422Y15932D01*
X208140Y18612D01*
Y21388D01*
X207422Y24068D01*
X206034Y26472D01*
X204072Y28434D01*
X201668Y29822D01*
X198988Y30540D01*
D02*
G37*
G36*
X173588D02*
X170812D01*
X168132Y29822D01*
X165728Y28434D01*
X163766Y26472D01*
X162378Y24068D01*
X161660Y21388D01*
Y18612D01*
X162378Y15932D01*
X163766Y13528D01*
X165728Y11566D01*
X168132Y10178D01*
X170812Y9460D01*
X173588D01*
X176268Y10178D01*
X178672Y11566D01*
X180634Y13528D01*
X182022Y15932D01*
X182740Y18612D01*
Y21388D01*
X182022Y24068D01*
X180634Y26472D01*
X178672Y28434D01*
X176268Y29822D01*
X173588Y30540D01*
D02*
G37*
G36*
X148188D02*
X145412D01*
X142732Y29822D01*
X140328Y28434D01*
X138366Y26472D01*
X136978Y24068D01*
X136260Y21388D01*
Y18612D01*
X136978Y15932D01*
X138366Y13528D01*
X140328Y11566D01*
X142732Y10178D01*
X145412Y9460D01*
X148188D01*
X150868Y10178D01*
X153272Y11566D01*
X155234Y13528D01*
X156622Y15932D01*
X157340Y18612D01*
Y21388D01*
X156622Y24068D01*
X155234Y26472D01*
X153272Y28434D01*
X150868Y29822D01*
X148188Y30540D01*
D02*
G37*
G36*
X97388D02*
X94612D01*
X91932Y29822D01*
X89528Y28434D01*
X87566Y26472D01*
X86178Y24068D01*
X85460Y21388D01*
Y18612D01*
X86178Y15932D01*
X87566Y13528D01*
X89528Y11566D01*
X91932Y10178D01*
X94612Y9460D01*
X97388D01*
X100068Y10178D01*
X102472Y11566D01*
X104434Y13528D01*
X105822Y15932D01*
X106540Y18612D01*
Y21388D01*
X105822Y24068D01*
X104434Y26472D01*
X102472Y28434D01*
X100068Y29822D01*
X97388Y30540D01*
D02*
G37*
G36*
X81140D02*
X60060D01*
Y9460D01*
X81140D01*
Y30540D01*
D02*
G37*
%LPD*%
G36*
X532070Y312550D02*
X531881Y312366D01*
X531715Y312162D01*
X531571Y311938D01*
X531449Y311693D01*
X531349Y311429D01*
X531271Y311145D01*
X531216Y310840D01*
X531183Y310516D01*
X531172Y310172D01*
X529172D01*
X529160Y310500D01*
X529125Y310807D01*
X529067Y311095D01*
X528986Y311361D01*
X528881Y311607D01*
X528753Y311833D01*
X528602Y312038D01*
X528428Y312223D01*
X528230Y312387D01*
X528009Y312530D01*
X532281Y312714D01*
X532070Y312550D01*
D02*
G37*
G36*
X417208Y298458D02*
X417905Y297882D01*
X418250Y297648D01*
X418593Y297450D01*
X418933Y297288D01*
X419272Y297162D01*
X419608Y297072D01*
X419941Y297018D01*
X420273Y297000D01*
Y295000D01*
X419941Y294982D01*
X419608Y294928D01*
X419272Y294838D01*
X418933Y294712D01*
X418593Y294550D01*
X418250Y294352D01*
X417905Y294118D01*
X417558Y293848D01*
X417208Y293542D01*
X416857Y293200D01*
Y298800D01*
X417208Y298458D01*
D02*
G37*
G36*
X349743Y349064D02*
X349692Y348943D01*
X349647Y348780D01*
X349608Y348576D01*
X349575Y348330D01*
X349527Y347714D01*
X349500Y346478D01*
X344500D01*
X344497Y346931D01*
X344392Y348576D01*
X344353Y348780D01*
X344308Y348943D01*
X344257Y349064D01*
X344200Y349143D01*
X349800D01*
X349743Y349064D01*
D02*
G37*
G36*
X349505Y273658D02*
X349580Y272554D01*
X349624Y272270D01*
X349679Y272026D01*
X349743Y271824D01*
X349818Y271663D01*
X349902Y271544D01*
X349997Y271466D01*
X344575Y270066D01*
X344500Y272337D01*
X349500Y274108D01*
X349505Y273658D01*
D02*
G37*
G36*
X206126Y402405D02*
X204056Y399999D01*
X203550Y399276D01*
X203136Y398594D01*
X202814Y397951D01*
X202584Y397349D01*
X202446Y396786D01*
X202400Y396263D01*
X200400D01*
X200354Y396786D01*
X200216Y397349D01*
X199986Y397951D01*
X199664Y398594D01*
X199250Y399276D01*
X198744Y399999D01*
X198146Y400761D01*
X196674Y402405D01*
X195800Y403287D01*
X207000D01*
X206126Y402405D01*
D02*
G37*
G36*
X164777Y143453D02*
X163392Y141876D01*
X162829Y141132D01*
X162353Y140418D01*
X161963Y139735D01*
X161660Y139081D01*
X161443Y138458D01*
X161313Y137865D01*
X161270Y137302D01*
X158730D01*
X158687Y137865D01*
X158557Y138458D01*
X158340Y139081D01*
X158037Y139735D01*
X157647Y140418D01*
X157171Y141132D01*
X156608Y141876D01*
X155223Y143453D01*
X154400Y144287D01*
X165600D01*
X164777Y143453D01*
D02*
G37*
G36*
X125063Y57006D02*
X122409Y57908D01*
X122505Y58775D01*
X125045D01*
X125063Y57006D01*
D02*
G37*
G36*
X113503Y29376D02*
X113998Y29076D01*
X114587Y28812D01*
X115269Y28586D01*
X116045Y28396D01*
X116913Y28243D01*
X117875Y28127D01*
X120078Y28005D01*
X121320Y28000D01*
X113400Y20080D01*
X113395Y21322D01*
X113157Y24487D01*
X113004Y25355D01*
X112814Y26131D01*
X112587Y26813D01*
X112324Y27402D01*
X112024Y27897D01*
X111686Y28300D01*
X113101Y29714D01*
X113503Y29376D01*
D02*
G37*
G36*
X186670Y139490D02*
X184130D01*
X182860Y142030D01*
X187940D01*
X186670Y139490D01*
D02*
G37*
G36*
X148606Y59856D02*
X148649Y59426D01*
X148720Y59029D01*
X148820Y58668D01*
X148948Y58342D01*
X149104Y58051D01*
X149289Y57795D01*
X149502Y57573D01*
X149744Y57386D01*
X150014Y57235D01*
X144542Y57731D01*
X144829Y57829D01*
X145086Y57963D01*
X145312Y58133D01*
X145508Y58338D01*
X145675Y58580D01*
X145810Y58857D01*
X145916Y59169D01*
X145992Y59518D01*
X146037Y59902D01*
X146052Y60322D01*
X148592D01*
X148606Y59856D01*
D02*
G37*
D11*
X348000Y268000D02*
Y268812D01*
X347000Y269812D02*
X348000Y268812D01*
X347000Y269812D02*
Y352000D01*
D14*
X109660Y248660D02*
X201400Y340400D01*
X109660Y31740D02*
Y248660D01*
X198600Y530000D02*
X211854Y543254D01*
X197600Y530000D02*
X198600D01*
X226800Y434400D02*
Y440613D01*
X235540Y449353D01*
Y534780D01*
X227066Y543254D02*
X235540Y534780D01*
X211854Y543254D02*
X227066D01*
X224000Y488000D02*
Y529000D01*
X223000Y530000D02*
X224000Y529000D01*
X189000Y453000D02*
X224000Y488000D01*
X189000Y422000D02*
Y453000D01*
X176000Y409000D02*
X189000Y422000D01*
X109660Y31740D02*
X121400Y20000D01*
X201400Y340400D02*
Y409000D01*
X530000Y316000D02*
X530172Y315828D01*
X414000Y296000D02*
X516000D01*
X530172Y310172D01*
Y315828D01*
D15*
X160000Y95000D02*
Y150000D01*
X121200Y50000D02*
X123775Y52575D01*
Y58775D01*
X160000Y95000D01*
X147322Y60322D02*
X185400Y98400D01*
X147322Y50722D02*
Y60322D01*
X185400Y98400D02*
Y150000D01*
X146600Y50000D02*
X147322Y50722D01*
D28*
X185400Y150000D02*
D03*
X70600Y20000D02*
D03*
Y530000D02*
D03*
X252600Y88000D02*
D03*
X19600Y500000D02*
D03*
Y50000D02*
D03*
X252200Y434400D02*
D03*
D29*
X160000Y150000D02*
D03*
X380000Y320400D02*
D03*
X553200Y20000D02*
D03*
X527800D02*
D03*
X502400D02*
D03*
X477000D02*
D03*
X451600D02*
D03*
X426200D02*
D03*
X400800D02*
D03*
X375400D02*
D03*
X350000D02*
D03*
X324600D02*
D03*
X299200D02*
D03*
X273800D02*
D03*
X248400D02*
D03*
X223000D02*
D03*
X197600D02*
D03*
X172200D02*
D03*
X146800D02*
D03*
X121400D02*
D03*
X96000D02*
D03*
X553200Y530000D02*
D03*
X527800D02*
D03*
X502400D02*
D03*
X477000D02*
D03*
X451600D02*
D03*
X426200D02*
D03*
X400800D02*
D03*
X375400D02*
D03*
X350000D02*
D03*
X324600D02*
D03*
X299200D02*
D03*
X273800D02*
D03*
X248400D02*
D03*
X223000D02*
D03*
X197600D02*
D03*
X172200D02*
D03*
X146800D02*
D03*
X121400D02*
D03*
X96000D02*
D03*
X278000Y88000D02*
D03*
X197400Y500000D02*
D03*
X172000D02*
D03*
X146600D02*
D03*
X121200D02*
D03*
X95800D02*
D03*
X70400D02*
D03*
X45000D02*
D03*
X197400Y50000D02*
D03*
X172000D02*
D03*
X146600D02*
D03*
X121200D02*
D03*
X95800D02*
D03*
X70400D02*
D03*
X45000D02*
D03*
X226800Y434400D02*
D03*
X201400Y409000D02*
D03*
X176000Y434400D02*
D03*
Y409000D02*
D03*
X252200D02*
D03*
X201400Y434400D02*
D03*
X226800Y409000D02*
D03*
X150600Y434400D02*
D03*
Y409000D02*
D03*
D30*
X380000Y295000D02*
D03*
D31*
X550000Y500000D02*
D03*
X525000Y450000D02*
D03*
X550000Y400000D02*
D03*
X525000Y350000D02*
D03*
X550000Y300000D02*
D03*
X525000Y250000D02*
D03*
X550000Y200000D02*
D03*
X525000Y150000D02*
D03*
X550000Y100000D02*
D03*
X525000Y50000D02*
D03*
X500000Y500000D02*
D03*
X475000Y450000D02*
D03*
X500000Y400000D02*
D03*
X475000Y350000D02*
D03*
Y250000D02*
D03*
X500000Y200000D02*
D03*
X475000Y150000D02*
D03*
X500000Y100000D02*
D03*
X475000Y50000D02*
D03*
X450000Y500000D02*
D03*
X425000Y450000D02*
D03*
X450000Y400000D02*
D03*
X425000Y350000D02*
D03*
Y250000D02*
D03*
X450000Y200000D02*
D03*
X425000Y150000D02*
D03*
X450000Y100000D02*
D03*
X425000Y50000D02*
D03*
X400000Y500000D02*
D03*
X375000Y450000D02*
D03*
X400000Y400000D02*
D03*
X375000Y350000D02*
D03*
Y250000D02*
D03*
X400000Y100000D02*
D03*
X375000Y50000D02*
D03*
X350000Y500000D02*
D03*
Y400000D02*
D03*
X325000Y250000D02*
D03*
X350000Y200000D02*
D03*
X325000Y150000D02*
D03*
X350000Y100000D02*
D03*
X325000Y50000D02*
D03*
X275000Y450000D02*
D03*
X300000Y400000D02*
D03*
X275000Y350000D02*
D03*
X300000Y300000D02*
D03*
X275000Y250000D02*
D03*
X300000Y200000D02*
D03*
X275000Y150000D02*
D03*
X300000Y100000D02*
D03*
X275000Y50000D02*
D03*
X225000Y450000D02*
D03*
Y350000D02*
D03*
X250000Y300000D02*
D03*
X225000Y250000D02*
D03*
X250000Y200000D02*
D03*
X225000Y150000D02*
D03*
X175000Y350000D02*
D03*
X200000Y300000D02*
D03*
X175000Y250000D02*
D03*
X200000Y200000D02*
D03*
Y100000D02*
D03*
X125000Y450000D02*
D03*
Y350000D02*
D03*
X150000Y300000D02*
D03*
X125000Y250000D02*
D03*
X150000Y200000D02*
D03*
X125000Y150000D02*
D03*
X150000Y100000D02*
D03*
X75000Y450000D02*
D03*
X100000Y400000D02*
D03*
X75000Y350000D02*
D03*
X100000Y300000D02*
D03*
X75000Y250000D02*
D03*
X100000Y200000D02*
D03*
X75000Y150000D02*
D03*
X100000Y100000D02*
D03*
X25000Y450000D02*
D03*
X50000Y400000D02*
D03*
X25000Y350000D02*
D03*
X50000Y300000D02*
D03*
X25000Y250000D02*
D03*
X50000Y200000D02*
D03*
X25000Y150000D02*
D03*
X50000Y100000D02*
D03*
D32*
X192000Y477000D02*
D03*
X348000Y268000D02*
D03*
X347000Y352000D02*
D03*
X414000Y296000D02*
D03*
X530000Y316000D02*
D03*
M02*
