G04*
G04 #@! TF.GenerationSoftware,Altium Limited,Altium Designer,25.4.2 (15)*
G04*
G04 Layer_Color=65535*
%FSLAX44Y44*%
%MOMM*%
G71*
G04*
G04 #@! TF.SameCoordinates,A3258BCF-D6D9-422E-9B80-D07A6E9861EE*
G04*
G04*
G04 #@! TF.FilePolarity,Positive*
G04*
G01*
G75*
%ADD10C,0.1500*%
%ADD11C,0.5000*%
%ADD12C,0.4000*%
%ADD13C,0.1524*%
%ADD14C,0.2000*%
%ADD15C,0.2540*%
G36*
X42327Y282671D02*
X42382D01*
X42521Y282615D01*
X42590Y282588D01*
X42674Y282532D01*
X42688Y282518D01*
X42701Y282504D01*
X42729Y282463D01*
X42771Y282407D01*
X42840Y282269D01*
X42854Y282199D01*
X42868Y282102D01*
X42826Y281922D01*
X40996Y276402D01*
Y276388D01*
X40982Y276374D01*
X40940Y276291D01*
X40885Y276180D01*
X40788Y276056D01*
X40774Y276042D01*
X40704Y276014D01*
X40607Y275972D01*
X40455Y275917D01*
X40441D01*
X40385Y275931D01*
X40316Y275944D01*
X40233Y275972D01*
X40136Y276042D01*
X40039Y276125D01*
X39955Y276236D01*
X39872Y276402D01*
X38028Y281922D01*
X38000Y282088D01*
Y282102D01*
Y282130D01*
X38014Y282171D01*
X38028Y282227D01*
X38069Y282352D01*
X38111Y282421D01*
X38166Y282490D01*
X38180Y282504D01*
X38194Y282518D01*
X38236Y282546D01*
X38291Y282588D01*
X38430Y282657D01*
X38513Y282671D01*
X38596Y282685D01*
X38624D01*
X38707Y282671D01*
X38804Y282657D01*
X38901Y282601D01*
X38929Y282588D01*
X38985Y282546D01*
X39026Y282504D01*
X39068Y282449D01*
X39109Y282366D01*
X39151Y282282D01*
X40427Y278177D01*
X41703Y282282D01*
Y282296D01*
X41717Y282310D01*
X41758Y282379D01*
X41828Y282477D01*
X41925Y282560D01*
X41939D01*
X41953Y282574D01*
X42022Y282629D01*
X42133Y282671D01*
X42258Y282685D01*
X42285D01*
X42327Y282671D01*
D02*
G37*
G36*
X63878Y285431D02*
X63948D01*
X64031Y285417D01*
X64239Y285361D01*
X64475Y285292D01*
X64738Y285181D01*
X64988Y285014D01*
X65113Y284917D01*
X65237Y284806D01*
X65251D01*
X65265Y284779D01*
X65335Y284695D01*
X65446Y284557D01*
X65570Y284390D01*
X65681Y284168D01*
X65792Y283905D01*
X65862Y283614D01*
X65889Y283461D01*
Y283295D01*
Y278150D01*
Y278136D01*
Y278108D01*
Y278066D01*
X65876Y277997D01*
Y277928D01*
X65862Y277845D01*
X65806Y277637D01*
X65737Y277401D01*
X65626Y277137D01*
X65459Y276888D01*
X65362Y276763D01*
X65251Y276638D01*
X65224Y276610D01*
X65141Y276541D01*
X65002Y276430D01*
X64822Y276319D01*
X64600Y276208D01*
X64350Y276097D01*
X64045Y276028D01*
X63892Y276014D01*
X63726Y276000D01*
X63088D01*
X63019Y276014D01*
X62949D01*
X62866Y276028D01*
X62658Y276083D01*
X62422Y276153D01*
X62159Y276264D01*
X61909Y276416D01*
X61784Y276499D01*
X61659Y276610D01*
Y276624D01*
X61632Y276638D01*
X61562Y276721D01*
X61452Y276860D01*
X61340Y277040D01*
X61230Y277262D01*
X61119Y277526D01*
X61049Y277817D01*
X61035Y277983D01*
X61021Y278150D01*
Y283295D01*
Y283309D01*
Y283336D01*
Y283378D01*
X61035Y283433D01*
X61049Y283600D01*
X61105Y283794D01*
X61174Y284030D01*
X61285Y284279D01*
X61438Y284543D01*
X61535Y284668D01*
X61646Y284793D01*
X61659Y284806D01*
X61673Y284820D01*
X61757Y284890D01*
X61895Y285001D01*
X62076Y285125D01*
X62297Y285236D01*
X62547Y285347D01*
X62852Y285417D01*
X63005Y285444D01*
X63809D01*
X63878Y285431D01*
D02*
G37*
G36*
X58969Y277151D02*
X59094Y277110D01*
X59163Y277054D01*
X59233Y276999D01*
X59246Y276985D01*
X59260Y276971D01*
X59344Y276888D01*
X59413Y276763D01*
X59427Y276680D01*
X59440Y276596D01*
Y276583D01*
Y276555D01*
X59427Y276513D01*
X59413Y276458D01*
X59371Y276333D01*
X59316Y276250D01*
X59260Y276180D01*
X59246Y276166D01*
X59233Y276153D01*
X59149Y276097D01*
X59011Y276028D01*
X58927Y276014D01*
X58844Y276000D01*
X58803D01*
X58747Y276014D01*
X58692Y276028D01*
X58553Y276069D01*
X58484Y276111D01*
X58414Y276166D01*
Y276180D01*
X58387Y276194D01*
X58359Y276236D01*
X58331Y276291D01*
X58276Y276430D01*
X58262Y276513D01*
X58248Y276596D01*
Y276610D01*
Y276638D01*
X58262Y276680D01*
X58276Y276735D01*
X58317Y276860D01*
X58359Y276929D01*
X58414Y276999D01*
X58428Y277012D01*
X58442Y277026D01*
X58484Y277054D01*
X58525Y277096D01*
X58664Y277151D01*
X58747Y277165D01*
X58844Y277179D01*
X58872D01*
X58969Y277151D01*
D02*
G37*
G36*
X54670Y285431D02*
X54739D01*
X54822Y285417D01*
X55030Y285361D01*
X55266Y285292D01*
X55530Y285181D01*
X55779Y285014D01*
X55904Y284917D01*
X56029Y284806D01*
X56043D01*
X56057Y284779D01*
X56126Y284695D01*
X56237Y284557D01*
X56362Y284390D01*
X56473Y284168D01*
X56584Y283905D01*
X56653Y283614D01*
X56681Y283461D01*
Y283295D01*
Y278150D01*
Y278136D01*
Y278108D01*
Y278066D01*
X56667Y277997D01*
Y277928D01*
X56653Y277845D01*
X56597Y277637D01*
X56528Y277401D01*
X56417Y277137D01*
X56251Y276888D01*
X56154Y276763D01*
X56043Y276638D01*
X56015Y276610D01*
X55932Y276541D01*
X55793Y276430D01*
X55613Y276319D01*
X55391Y276208D01*
X55141Y276097D01*
X54836Y276028D01*
X54684Y276014D01*
X54517Y276000D01*
X53879D01*
X53810Y276014D01*
X53741D01*
X53657Y276028D01*
X53449Y276083D01*
X53214Y276153D01*
X52950Y276264D01*
X52701Y276416D01*
X52576Y276499D01*
X52451Y276610D01*
Y276624D01*
X52423Y276638D01*
X52354Y276721D01*
X52243Y276860D01*
X52132Y277040D01*
X52021Y277262D01*
X51910Y277526D01*
X51841Y277817D01*
X51827Y277983D01*
X51813Y278150D01*
Y283295D01*
Y283309D01*
Y283336D01*
Y283378D01*
X51827Y283433D01*
X51841Y283600D01*
X51896Y283794D01*
X51965Y284030D01*
X52076Y284279D01*
X52229Y284543D01*
X52326Y284668D01*
X52437Y284793D01*
X52451Y284806D01*
X52465Y284820D01*
X52548Y284890D01*
X52687Y285001D01*
X52867Y285125D01*
X53089Y285236D01*
X53338Y285347D01*
X53644Y285417D01*
X53796Y285444D01*
X54601D01*
X54670Y285431D01*
D02*
G37*
G36*
X49760Y277151D02*
X49885Y277110D01*
X49955Y277054D01*
X50024Y276999D01*
X50038Y276985D01*
X50052Y276971D01*
X50135Y276888D01*
X50204Y276763D01*
X50218Y276680D01*
X50232Y276596D01*
Y276583D01*
Y276555D01*
X50218Y276513D01*
X50204Y276458D01*
X50163Y276333D01*
X50107Y276250D01*
X50052Y276180D01*
X50038Y276166D01*
X50024Y276153D01*
X49941Y276097D01*
X49802Y276028D01*
X49719Y276014D01*
X49636Y276000D01*
X49594D01*
X49538Y276014D01*
X49483Y276028D01*
X49344Y276069D01*
X49275Y276111D01*
X49206Y276166D01*
Y276180D01*
X49178Y276194D01*
X49150Y276236D01*
X49123Y276291D01*
X49067Y276430D01*
X49053Y276513D01*
X49039Y276596D01*
Y276610D01*
Y276638D01*
X49053Y276680D01*
X49067Y276735D01*
X49109Y276860D01*
X49150Y276929D01*
X49206Y276999D01*
X49219Y277012D01*
X49233Y277026D01*
X49275Y277054D01*
X49317Y277096D01*
X49455Y277151D01*
X49538Y277165D01*
X49636Y277179D01*
X49663D01*
X49760Y277151D01*
D02*
G37*
G36*
X47070Y285486D02*
X47181Y285444D01*
X47250Y285389D01*
X47320Y285333D01*
X47333Y285320D01*
X47347Y285306D01*
X47375Y285264D01*
X47403Y285209D01*
X47444Y285056D01*
X47472Y284959D01*
Y284862D01*
Y276596D01*
Y276583D01*
Y276555D01*
X47458Y276499D01*
Y276444D01*
X47403Y276291D01*
X47361Y276222D01*
X47306Y276153D01*
X47292D01*
X47278Y276125D01*
X47236Y276111D01*
X47181Y276083D01*
X47042Y276028D01*
X46973Y276014D01*
X46876Y276000D01*
X46834D01*
X46793Y276014D01*
X46723D01*
X46585Y276056D01*
X46446Y276139D01*
Y276153D01*
X46418Y276166D01*
X46390Y276208D01*
X46363Y276250D01*
X46335Y276319D01*
X46307Y276402D01*
X46293Y276485D01*
X46279Y276596D01*
Y283614D01*
X45447Y282588D01*
X45434D01*
X45420Y282560D01*
X45378Y282532D01*
X45322Y282504D01*
X45198Y282449D01*
X45114Y282435D01*
X45031Y282421D01*
X44990D01*
X44948Y282435D01*
X44893Y282449D01*
X44768Y282490D01*
X44685Y282532D01*
X44615Y282588D01*
X44601Y282601D01*
X44587Y282615D01*
X44560Y282657D01*
X44532Y282712D01*
X44463Y282851D01*
X44449Y282934D01*
X44435Y283017D01*
Y283031D01*
Y283059D01*
X44449Y283101D01*
X44463Y283142D01*
X44504Y283281D01*
X44546Y283350D01*
X44601Y283420D01*
X46446Y285264D01*
X46460Y285278D01*
X46515Y285320D01*
X46585Y285375D01*
X46668Y285431D01*
X46695Y285444D01*
X46751Y285472D01*
X46848Y285500D01*
X46959Y285514D01*
X46987D01*
X47070Y285486D01*
D02*
G37*
G36*
X72557Y269014D02*
X72590D01*
X72634Y268992D01*
X72734Y268958D01*
X72856Y268892D01*
X72990Y268814D01*
X73112Y268703D01*
X73211Y268559D01*
X73245Y268470D01*
X73278Y268381D01*
Y265285D01*
X72934Y264996D01*
X72343Y265553D01*
X72834Y265007D01*
X72335Y264463D01*
X69427D01*
X69420Y264470D01*
X69426Y264463D01*
X69427D01*
X69604Y264297D01*
Y262110D01*
X69569Y262099D01*
X72479D01*
X72845Y261000D01*
X69127D01*
X69105Y261011D01*
X69049Y261033D01*
X68960Y261067D01*
X68860Y261133D01*
X68749Y261233D01*
X68650Y261355D01*
X68561Y261522D01*
X68516Y261611D01*
X68494Y261721D01*
X68964Y261905D01*
X68494Y261755D01*
Y264729D01*
X68827Y265029D01*
X69420Y264470D01*
X68927Y265007D01*
X69426Y265562D01*
X72333D01*
X72343Y265553D01*
X72335Y265562D01*
X72333D01*
X72168Y265717D01*
Y267961D01*
X72157Y267926D01*
X69460D01*
X68505Y268293D01*
Y268304D01*
X68516Y268315D01*
X68527Y268393D01*
X68572Y268492D01*
X68627Y268614D01*
X68716Y268736D01*
X68827Y268859D01*
X68971Y268958D01*
X69149Y269025D01*
X72512D01*
X72384Y268629D01*
X72168Y268060D01*
Y267961D01*
X72384Y268629D01*
X72534Y269025D01*
X72545D01*
X72557Y269014D01*
D02*
G37*
G36*
X66807D02*
X66840D01*
X66885Y268992D01*
X66985Y268958D01*
X67107Y268892D01*
X67240Y268814D01*
X67362Y268703D01*
X67462Y268559D01*
X67495Y268470D01*
X67528Y268381D01*
Y265285D01*
X67204Y265012D01*
X67184Y265029D01*
X67167Y265012D01*
X66418Y265717D01*
Y267961D01*
X66407Y267926D01*
X63787D01*
X63854Y267904D01*
Y265717D01*
X63095Y265012D01*
X63077Y265029D01*
X63059Y265012D01*
X62744Y265285D01*
Y268270D01*
X63237Y268108D01*
X63710Y267926D01*
X63787D01*
X63237Y268108D01*
X62755Y268293D01*
Y268304D01*
X62767Y268315D01*
X62778Y268393D01*
X62822Y268492D01*
X62878Y268614D01*
X62966Y268736D01*
X63077Y268859D01*
X63222Y268958D01*
X63399Y269025D01*
X66762D01*
X66635Y268629D01*
X66418Y268060D01*
Y267961D01*
X66635Y268629D01*
X66785Y269025D01*
X66796D01*
X66807Y269014D01*
D02*
G37*
G36*
X61057D02*
X61090D01*
X61135Y268992D01*
X61235Y268958D01*
X61357Y268892D01*
X61490Y268814D01*
X61612Y268703D01*
X61712Y268559D01*
X61745Y268470D01*
X61779Y268381D01*
Y265285D01*
X61435Y264996D01*
X60844Y265553D01*
X61335Y265007D01*
X60835Y264463D01*
X57928D01*
X57921Y264470D01*
X57927Y264463D01*
X57928D01*
X58105Y264297D01*
Y262110D01*
X58070Y262099D01*
X60979D01*
X61346Y261000D01*
X57627D01*
X57605Y261011D01*
X57550Y261033D01*
X57461Y261067D01*
X57361Y261133D01*
X57250Y261233D01*
X57150Y261355D01*
X57061Y261522D01*
X57017Y261611D01*
X56995Y261721D01*
X57465Y261905D01*
X56995Y261755D01*
Y264729D01*
X57328Y265029D01*
X57921Y264470D01*
X57428Y265007D01*
X57927Y265562D01*
X60834D01*
X60844Y265553D01*
X60835Y265562D01*
X60834D01*
X60669Y265717D01*
Y267961D01*
X60658Y267926D01*
X57960D01*
X57006Y268293D01*
Y268304D01*
X57017Y268315D01*
X57028Y268393D01*
X57072Y268492D01*
X57128Y268614D01*
X57217Y268736D01*
X57328Y268859D01*
X57472Y268958D01*
X57650Y269025D01*
X61013D01*
X60885Y268629D01*
X60669Y268060D01*
Y267961D01*
X60885Y268629D01*
X61035Y269025D01*
X61046D01*
X61057Y269014D01*
D02*
G37*
G36*
X47560D02*
X47593D01*
X47638Y268992D01*
X47737Y268958D01*
X47860Y268892D01*
X47993Y268814D01*
X48115Y268703D01*
X48215Y268559D01*
X48248Y268470D01*
X48281Y268381D01*
Y265285D01*
X47957Y265012D01*
X47937Y265029D01*
X47920Y265012D01*
X47171Y265717D01*
Y267961D01*
X47160Y267926D01*
X44540D01*
X44607Y267904D01*
Y265717D01*
X43848Y265012D01*
X43830Y265029D01*
X43811Y265012D01*
X43497Y265285D01*
Y268270D01*
X43990Y268108D01*
X44463Y267926D01*
X44540D01*
X43990Y268108D01*
X43508Y268293D01*
Y268304D01*
X43520Y268315D01*
X43531Y268393D01*
X43575Y268492D01*
X43630Y268614D01*
X43719Y268736D01*
X43830Y268859D01*
X43975Y268958D01*
X44152Y269025D01*
X47516D01*
X47387Y268629D01*
X47171Y268060D01*
Y267961D01*
X47387Y268629D01*
X47538Y269025D01*
X47549D01*
X47560Y269014D01*
D02*
G37*
G36*
X34062D02*
X34096D01*
X34140Y268992D01*
X34240Y268958D01*
X34362Y268892D01*
X34495Y268814D01*
X34618Y268703D01*
X34717Y268559D01*
X34751Y268470D01*
X34784Y268381D01*
Y265285D01*
X34440Y264996D01*
X33849Y265553D01*
X34340Y265007D01*
X33840Y264463D01*
X30933D01*
X30926Y264470D01*
X30932Y264463D01*
X30933D01*
X31110Y264297D01*
Y262110D01*
X31075Y262099D01*
X33985D01*
X34351Y261000D01*
X30633D01*
X30610Y261011D01*
X30555Y261033D01*
X30466Y261067D01*
X30366Y261133D01*
X30255Y261233D01*
X30155Y261355D01*
X30067Y261522D01*
X30022Y261611D01*
X30000Y261721D01*
X30470Y261905D01*
X30000Y261755D01*
Y264729D01*
X30333Y265029D01*
X30926Y264470D01*
X30433Y265007D01*
X30932Y265562D01*
X33839D01*
X33849Y265553D01*
X33840Y265562D01*
X33839D01*
X33674Y265717D01*
Y267961D01*
X33663Y267926D01*
X30966D01*
X30011Y268293D01*
Y268304D01*
X30022Y268315D01*
X30033Y268393D01*
X30078Y268492D01*
X30133Y268614D01*
X30222Y268736D01*
X30333Y268859D01*
X30477Y268958D01*
X30655Y269025D01*
X34018D01*
X33890Y268629D01*
X33674Y268060D01*
Y267961D01*
X33890Y268629D01*
X34040Y269025D01*
X34051D01*
X34062Y269014D01*
D02*
G37*
G36*
X78229Y267926D02*
X75286D01*
X75354Y267904D01*
Y265717D01*
X75186Y265562D01*
X78084D01*
X78584Y265007D01*
X78084Y264463D01*
X75176D01*
X74677Y265007D01*
X75124Y265504D01*
X74577Y264996D01*
X74244Y265285D01*
Y268270D01*
X74736Y268108D01*
X75209Y267926D01*
X75286D01*
X74736Y268108D01*
X74255Y268293D01*
Y268304D01*
X74266Y268315D01*
X74277Y268393D01*
X74321Y268492D01*
X74377Y268614D01*
X74466Y268736D01*
X74577Y268859D01*
X74721Y268958D01*
X74899Y269025D01*
X78595D01*
X78229Y267926D01*
D02*
G37*
G36*
X53232D02*
X50290D01*
X50357Y267904D01*
Y265717D01*
X50190Y265562D01*
X53088D01*
X53587Y265007D01*
X53088Y264463D01*
X50180D01*
X50173Y264470D01*
X50179Y264463D01*
X50180D01*
X50357Y264297D01*
Y262110D01*
X50322Y262099D01*
X52910D01*
X52921Y262064D01*
Y261955D01*
X53147Y261367D01*
X52921Y262064D01*
Y264297D01*
X53687Y265029D01*
X54031Y264729D01*
Y261644D01*
X54020Y261622D01*
X53998Y261566D01*
X53953Y261477D01*
X53887Y261366D01*
X53787Y261255D01*
X53665Y261155D01*
X53498Y261067D01*
X53398Y261022D01*
X53287Y261000D01*
X53147Y261367D01*
X53265Y261000D01*
X49880D01*
X49858Y261011D01*
X49802Y261033D01*
X49713Y261067D01*
X49613Y261133D01*
X49502Y261233D01*
X49402Y261355D01*
X49314Y261522D01*
X49269Y261611D01*
X49247Y261721D01*
X49717Y261905D01*
X49247Y261755D01*
Y264729D01*
X49561Y265012D01*
X49580Y264996D01*
X49598Y265012D01*
X50173Y264470D01*
X49680Y265007D01*
X50127Y265504D01*
X49598Y265012D01*
X49580Y265029D01*
X49561Y265012D01*
X49247Y265285D01*
Y268270D01*
X49740Y268108D01*
X50213Y267926D01*
X50290D01*
X49740Y268108D01*
X49258Y268293D01*
Y268304D01*
X49269Y268315D01*
X49280Y268393D01*
X49325Y268492D01*
X49380Y268614D01*
X49469Y268736D01*
X49580Y268859D01*
X49724Y268958D01*
X49902Y269025D01*
X53598D01*
X53232Y267926D01*
D02*
G37*
G36*
X39734D02*
X36792D01*
X36860Y267904D01*
Y265717D01*
X36692Y265562D01*
X39590D01*
X40090Y265007D01*
X39590Y264463D01*
X36682D01*
X36183Y265007D01*
X36630Y265504D01*
X36083Y264996D01*
X35750Y265285D01*
Y268270D01*
X36242Y268108D01*
X36715Y267926D01*
X36792D01*
X36242Y268108D01*
X35761Y268293D01*
Y268304D01*
X35772Y268315D01*
X35783Y268393D01*
X35827Y268492D01*
X35883Y268614D01*
X35972Y268736D01*
X36083Y268859D01*
X36227Y268958D01*
X36405Y269025D01*
X40101D01*
X39734Y267926D01*
D02*
G37*
G36*
X79028Y264729D02*
Y261644D01*
X79017Y261622D01*
X78994Y261566D01*
X78950Y261477D01*
X78884Y261366D01*
X78784Y261255D01*
X78661Y261155D01*
X78495Y261067D01*
X78395Y261022D01*
X78284Y261000D01*
X78143Y261367D01*
X78262Y261000D01*
X74876D01*
X74854Y261011D01*
X74799Y261033D01*
X74710Y261067D01*
X74610Y261133D01*
X74499Y261233D01*
X74399Y261355D01*
X74310Y261522D01*
X74266Y261611D01*
X74244Y261721D01*
X75209Y262099D01*
X77907D01*
X77918Y262064D01*
Y261955D01*
X78143Y261367D01*
X77918Y262064D01*
Y264297D01*
X78684Y265029D01*
X79028Y264729D01*
D02*
G37*
G36*
X67184Y264996D02*
X67204Y265012D01*
X67528Y264729D01*
Y261644D01*
X67517Y261622D01*
X67495Y261566D01*
X67451Y261477D01*
X67384Y261366D01*
X67284Y261255D01*
X67162Y261155D01*
X66996Y261067D01*
X66896Y261022D01*
X66785Y261000D01*
X66644Y261367D01*
X66762Y261000D01*
X63377D01*
X63355Y261011D01*
X63299Y261033D01*
X63211Y261067D01*
X63111Y261133D01*
X63000Y261233D01*
X62900Y261355D01*
X62811Y261522D01*
X62767Y261611D01*
X62744Y261721D01*
X63215Y261905D01*
X62744Y261755D01*
Y264729D01*
X63059Y265012D01*
X63077Y264996D01*
X63095Y265012D01*
X63854Y264297D01*
Y262110D01*
X63820Y262099D01*
X66407D01*
X66418Y262064D01*
Y261955D01*
X66644Y261367D01*
X66418Y262064D01*
Y264297D01*
X67167Y265012D01*
X67184Y264996D01*
D02*
G37*
G36*
X47937D02*
X47957Y265012D01*
X48281Y264729D01*
Y261644D01*
X48270Y261622D01*
X48248Y261566D01*
X48204Y261477D01*
X48137Y261366D01*
X48037Y261255D01*
X47915Y261155D01*
X47749Y261067D01*
X47649Y261022D01*
X47538Y261000D01*
X47397Y261367D01*
X47516Y261000D01*
X44130D01*
X44108Y261011D01*
X44052Y261033D01*
X43963Y261067D01*
X43864Y261133D01*
X43753Y261233D01*
X43653Y261355D01*
X43564Y261522D01*
X43520Y261611D01*
X43497Y261721D01*
X43968Y261905D01*
X43497Y261755D01*
Y264729D01*
X43811Y265012D01*
X43830Y264996D01*
X43848Y265012D01*
X44607Y264297D01*
Y262110D01*
X44573Y262099D01*
X47160D01*
X47171Y262064D01*
Y261955D01*
X47397Y261367D01*
X47171Y262064D01*
Y264297D01*
X47920Y265012D01*
X47937Y264996D01*
D02*
G37*
G36*
X40534Y264729D02*
Y261644D01*
X40523Y261622D01*
X40500Y261566D01*
X40456Y261477D01*
X40389Y261366D01*
X40290Y261255D01*
X40167Y261155D01*
X40001Y261067D01*
X39901Y261022D01*
X39790Y261000D01*
X39649Y261367D01*
X39768Y261000D01*
X36382D01*
X36360Y261011D01*
X36305Y261033D01*
X36216Y261067D01*
X36116Y261133D01*
X36005Y261233D01*
X35905Y261355D01*
X35816Y261522D01*
X35772Y261611D01*
X35750Y261721D01*
X36715Y262099D01*
X39413D01*
X39424Y262064D01*
Y261955D01*
X39649Y261367D01*
X39424Y262064D01*
Y264297D01*
X40190Y265029D01*
X40534Y264729D01*
D02*
G37*
G36*
X56107Y261000D02*
X54997D01*
Y262099D01*
X56107D01*
Y261000D01*
D02*
G37*
G36*
X42609D02*
X41499D01*
Y262099D01*
X42609D01*
Y261000D01*
D02*
G37*
%LPC*%
G36*
X63726Y284266D02*
X63102D01*
X63032Y284252D01*
X62935Y284224D01*
X62824Y284196D01*
X62713Y284141D01*
X62603Y284071D01*
X62492Y283974D01*
X62478Y283960D01*
X62450Y283919D01*
X62408Y283863D01*
X62353Y283780D01*
X62297Y283683D01*
X62256Y283572D01*
X62228Y283433D01*
X62214Y283295D01*
Y278150D01*
Y278136D01*
Y278080D01*
X62228Y278011D01*
X62256Y277914D01*
X62284Y277803D01*
X62325Y277692D01*
X62394Y277567D01*
X62492Y277456D01*
X62505Y277442D01*
X62547Y277415D01*
X62603Y277373D01*
X62686Y277318D01*
X62783Y277262D01*
X62894Y277220D01*
X63032Y277193D01*
X63171Y277179D01*
X63795D01*
X63865Y277193D01*
X63962Y277220D01*
X64059Y277248D01*
X64184Y277290D01*
X64295Y277359D01*
X64405Y277456D01*
X64419Y277470D01*
X64447Y277512D01*
X64503Y277567D01*
X64558Y277650D01*
X64600Y277747D01*
X64655Y277872D01*
X64683Y277997D01*
X64697Y278150D01*
Y283295D01*
Y283309D01*
Y283364D01*
X64683Y283433D01*
X64655Y283531D01*
X64627Y283628D01*
X64572Y283752D01*
X64503Y283863D01*
X64405Y283974D01*
X64392Y283988D01*
X64350Y284016D01*
X64295Y284071D01*
X64211Y284127D01*
X64114Y284168D01*
X64003Y284224D01*
X63865Y284252D01*
X63726Y284266D01*
D02*
G37*
G36*
X54517D02*
X53893D01*
X53824Y284252D01*
X53727Y284224D01*
X53616Y284196D01*
X53505Y284141D01*
X53394Y284071D01*
X53283Y283974D01*
X53269Y283960D01*
X53241Y283919D01*
X53200Y283863D01*
X53144Y283780D01*
X53089Y283683D01*
X53047Y283572D01*
X53019Y283433D01*
X53006Y283295D01*
Y278150D01*
Y278136D01*
Y278080D01*
X53019Y278011D01*
X53047Y277914D01*
X53075Y277803D01*
X53117Y277692D01*
X53186Y277567D01*
X53283Y277456D01*
X53297Y277442D01*
X53338Y277415D01*
X53394Y277373D01*
X53477Y277318D01*
X53574Y277262D01*
X53685Y277220D01*
X53824Y277193D01*
X53962Y277179D01*
X54587D01*
X54656Y277193D01*
X54753Y277220D01*
X54850Y277248D01*
X54975Y277290D01*
X55086Y277359D01*
X55197Y277456D01*
X55211Y277470D01*
X55238Y277512D01*
X55294Y277567D01*
X55349Y277650D01*
X55391Y277747D01*
X55446Y277872D01*
X55474Y277997D01*
X55488Y278150D01*
Y283295D01*
Y283309D01*
Y283364D01*
X55474Y283433D01*
X55446Y283531D01*
X55419Y283628D01*
X55363Y283752D01*
X55294Y283863D01*
X55197Y283974D01*
X55183Y283988D01*
X55141Y284016D01*
X55086Y284071D01*
X55003Y284127D01*
X54906Y284168D01*
X54795Y284224D01*
X54656Y284252D01*
X54517Y284266D01*
D02*
G37*
G36*
X69569Y262099D02*
X69460D01*
X68964Y261905D01*
X69569Y262099D01*
D02*
G37*
G36*
X58070D02*
X57960D01*
X57465Y261905D01*
X58070Y262099D01*
D02*
G37*
G36*
X31075D02*
X30966D01*
X30470Y261905D01*
X31075Y262099D01*
D02*
G37*
G36*
X75186Y265562D02*
X75176D01*
X75124Y265504D01*
X75186Y265562D01*
D02*
G37*
G36*
X50190D02*
X50179D01*
X50127Y265504D01*
X50190Y265562D01*
D02*
G37*
G36*
X50322Y262099D02*
X50213D01*
X49717Y261905D01*
X50322Y262099D01*
D02*
G37*
G36*
X36692Y265562D02*
X36682D01*
X36630Y265504D01*
X36692Y265562D01*
D02*
G37*
G36*
X63820Y262099D02*
X63710D01*
X63215Y261905D01*
X63820Y262099D01*
D02*
G37*
G36*
X44573D02*
X44463D01*
X43968Y261905D01*
X44573Y262099D01*
D02*
G37*
%LPD*%
D10*
X77506Y288006D02*
G03*
X76006Y289506I-1500J0D01*
G01*
Y272500D02*
G03*
X77506Y274000I0J1500D01*
G01*
X31500Y289506D02*
G03*
X30000Y288006I0J-1500D01*
G01*
Y274000D02*
G03*
X31500Y272500I1500J0D01*
G01*
X76006D01*
X31500Y289506D02*
X76006D01*
X77506Y274000D02*
Y288006D01*
X30000Y274000D02*
Y288006D01*
X378000Y366000D02*
Y380000D01*
X390700Y366000D02*
Y367920D01*
X365300Y366000D02*
X390700D01*
X365300D02*
Y367920D01*
Y378080D02*
Y380000D01*
X390700D01*
Y378080D02*
Y380000D01*
X339000Y326000D02*
X353000D01*
X339000Y313300D02*
X340920D01*
X339000D02*
Y338700D01*
X340920D01*
X351080D02*
X353000D01*
Y313300D02*
Y338700D01*
X351080Y313300D02*
X353000D01*
X339000Y291000D02*
X353000D01*
X351080Y303700D02*
X353000D01*
Y278300D02*
Y303700D01*
X351080Y278300D02*
X353000D01*
X339000D02*
X340920D01*
X339000D02*
Y303700D01*
X340920D01*
X271000Y120000D02*
X285000D01*
X271000Y107300D02*
X272920D01*
X271000D02*
Y132700D01*
X272920D01*
X283080D02*
X285000D01*
Y107300D02*
Y132700D01*
X283080Y107300D02*
X285000D01*
X246000Y120000D02*
X260000D01*
X246000Y107300D02*
X247920D01*
X246000D02*
Y132700D01*
X247920D01*
X258080D02*
X260000D01*
Y107300D02*
Y132700D01*
X258080Y107300D02*
X260000D01*
D11*
X431202Y342960D02*
G03*
X431202Y342960I-2000J0D01*
G01*
D12*
X253700Y476400D02*
G03*
X253700Y476400I-1500J0D01*
G01*
D13*
X446728Y348294D02*
X480420D01*
X505580Y215706D02*
X508196D01*
Y333629D02*
Y348294D01*
X446728Y215706D02*
Y230371D01*
Y215706D02*
X480420D01*
X446728Y333629D02*
Y348294D01*
X505580D02*
X508196D01*
Y215706D02*
Y230371D01*
D14*
X407500Y228500D02*
Y235500D01*
X402500Y240500D02*
X407500Y235500D01*
Y202500D02*
Y209500D01*
X402500Y197500D02*
X407500Y202500D01*
X364500Y240500D02*
X402500D01*
X364500Y228500D02*
Y240500D01*
Y197500D02*
X402500D01*
X364500D02*
Y209500D01*
X95000Y276000D02*
Y282665D01*
X98332Y285997D01*
X101664Y282665D01*
Y276000D01*
Y280998D01*
X95000D01*
X104997Y285997D02*
Y276000D01*
X109995D01*
X111661Y277666D01*
Y284331D01*
X109995Y285997D01*
X104997D01*
X114993Y276000D02*
Y282665D01*
X118326Y285997D01*
X121658Y282665D01*
Y276000D01*
Y280998D01*
X114993D01*
X124990Y276000D02*
Y285997D01*
X129989D01*
X131655Y284331D01*
Y280998D01*
X129989Y279332D01*
X124990D01*
X134987Y285997D02*
X141652D01*
X138319D01*
Y276000D01*
X151648Y285997D02*
X144984D01*
Y276000D01*
X151648D01*
X144984Y280998D02*
X148316D01*
X154981Y276000D02*
Y285997D01*
X159979D01*
X161645Y284331D01*
Y280998D01*
X159979Y279332D01*
X154981D01*
X158313D02*
X161645Y276000D01*
X280665Y70331D02*
X278998Y71997D01*
X275666D01*
X274000Y70331D01*
Y68664D01*
X275666Y66998D01*
X278998D01*
X280665Y65332D01*
Y63666D01*
X278998Y62000D01*
X275666D01*
X274000Y63666D01*
X283997Y71997D02*
Y62000D01*
X288995D01*
X290661Y63666D01*
Y70331D01*
X288995Y71997D01*
X283997D01*
X293993Y62000D02*
Y68664D01*
X297326Y71997D01*
X300658Y68664D01*
Y62000D01*
Y66998D01*
X293993D01*
X237665Y70331D02*
X235998Y71997D01*
X232666D01*
X231000Y70331D01*
Y68664D01*
X232666Y66998D01*
X235998D01*
X237665Y65332D01*
Y63666D01*
X235998Y62000D01*
X232666D01*
X231000Y63666D01*
X247661Y70331D02*
X245995Y71997D01*
X242663D01*
X240997Y70331D01*
Y63666D01*
X242663Y62000D01*
X245995D01*
X247661Y63666D01*
X250994Y71997D02*
Y62000D01*
X257658D01*
X404664Y318331D02*
X402998Y319997D01*
X399666D01*
X398000Y318331D01*
Y316665D01*
X399666Y314998D01*
X402998D01*
X404664Y313332D01*
Y311666D01*
X402998Y310000D01*
X399666D01*
X398000Y311666D01*
X407997Y319997D02*
Y310000D01*
X412995D01*
X414661Y311666D01*
Y318331D01*
X412995Y319997D01*
X407997D01*
X417994Y310000D02*
Y316665D01*
X421326Y319997D01*
X424658Y316665D01*
Y310000D01*
Y314998D01*
X417994D01*
X405664Y289331D02*
X403998Y290997D01*
X400666D01*
X399000Y289331D01*
Y287665D01*
X400666Y285998D01*
X403998D01*
X405664Y284332D01*
Y282666D01*
X403998Y281000D01*
X400666D01*
X399000Y282666D01*
X415661Y289331D02*
X413995Y290997D01*
X410663D01*
X408997Y289331D01*
Y282666D01*
X410663Y281000D01*
X413995D01*
X415661Y282666D01*
X418993Y290997D02*
Y281000D01*
X425658D01*
X150665Y174331D02*
X148998Y175997D01*
X145666D01*
X144000Y174331D01*
Y167666D01*
X145666Y166000D01*
X148998D01*
X150665Y167666D01*
Y170998D01*
X147332D01*
X153997Y166000D02*
Y175997D01*
X160661Y166000D01*
Y175997D01*
X163994D02*
Y166000D01*
X168992D01*
X170658Y167666D01*
Y174331D01*
X168992Y175997D01*
X163994D01*
X177000Y170998D02*
X183664D01*
X180332Y174331D02*
Y167666D01*
X193661Y175997D02*
X186997D01*
Y170998D01*
X190329Y172665D01*
X191995D01*
X193661Y170998D01*
Y167666D01*
X191995Y166000D01*
X188663D01*
X186997Y167666D01*
X196994Y175997D02*
Y169332D01*
X200326Y166000D01*
X203658Y169332D01*
Y175997D01*
X161337Y131998D02*
X168002Y122002D01*
Y131998D02*
X161337Y122002D01*
X177998Y130332D02*
X176332Y131998D01*
X173000D01*
X171334Y130332D01*
Y128666D01*
X173000Y127000D01*
X176332D01*
X177998Y125334D01*
Y123668D01*
X176332Y122002D01*
X173000D01*
X171334Y123668D01*
X181331Y122002D02*
X184663D01*
X182997D01*
Y131998D01*
X181331Y130332D01*
X59671Y382998D02*
X66336Y373002D01*
Y382998D02*
X59671Y373002D01*
X69668D02*
Y382998D01*
X74666D01*
X76332Y381332D01*
Y378000D01*
X74666Y376334D01*
X69668D01*
X86329Y382998D02*
X82997Y381332D01*
X79665Y378000D01*
Y374668D01*
X81331Y373002D01*
X84663D01*
X86329Y374668D01*
Y376334D01*
X84663Y378000D01*
X79665D01*
X362671Y279998D02*
X369336Y270002D01*
Y279998D02*
X362671Y270002D01*
X372668D02*
Y279998D01*
X377666D01*
X379332Y278332D01*
Y275000D01*
X377666Y273334D01*
X372668D01*
X389329Y279998D02*
X382664D01*
Y275000D01*
X385997Y276666D01*
X387663D01*
X389329Y275000D01*
Y271668D01*
X387663Y270002D01*
X384331D01*
X382664Y271668D01*
X213671Y110998D02*
X220336Y101002D01*
Y110998D02*
X213671Y101002D01*
X223668D02*
Y110998D01*
X228666D01*
X230332Y109332D01*
Y106000D01*
X228666Y104334D01*
X223668D01*
X238663Y101002D02*
Y110998D01*
X233664Y106000D01*
X240329D01*
X446671Y363998D02*
X453335Y354002D01*
Y363998D02*
X446671Y354002D01*
X456668D02*
Y363998D01*
X461666D01*
X463332Y362332D01*
Y359000D01*
X461666Y357334D01*
X456668D01*
X466665Y362332D02*
X468331Y363998D01*
X471663D01*
X473329Y362332D01*
Y360666D01*
X471663Y359000D01*
X469997D01*
X471663D01*
X473329Y357334D01*
Y355668D01*
X471663Y354002D01*
X468331D01*
X466665Y355668D01*
X269669Y137002D02*
Y146998D01*
X274668D01*
X276334Y145332D01*
Y142000D01*
X274668Y140334D01*
X269669D01*
X273002D02*
X276334Y137002D01*
X286331Y146998D02*
X279666D01*
Y142000D01*
X282998Y143666D01*
X284664D01*
X286331Y142000D01*
Y138668D01*
X284664Y137002D01*
X281332D01*
X279666Y138668D01*
X244669Y137002D02*
Y146998D01*
X249668D01*
X251334Y145332D01*
Y142000D01*
X249668Y140334D01*
X244669D01*
X248002D02*
X251334Y137002D01*
X259664D02*
Y146998D01*
X254666Y142000D01*
X261331D01*
X366669Y385002D02*
Y394998D01*
X371668D01*
X373334Y393332D01*
Y390000D01*
X371668Y388334D01*
X366669D01*
X370002D02*
X373334Y385002D01*
X376666Y393332D02*
X378332Y394998D01*
X381665D01*
X383331Y393332D01*
Y391666D01*
X381665Y390000D01*
X379998D01*
X381665D01*
X383331Y388334D01*
Y386668D01*
X381665Y385002D01*
X378332D01*
X376666Y386668D01*
X316669Y286002D02*
Y295998D01*
X321668D01*
X323334Y294332D01*
Y291000D01*
X321668Y289334D01*
X316669D01*
X320002D02*
X323334Y286002D01*
X333331D02*
X326666D01*
X333331Y292666D01*
Y294332D01*
X331665Y295998D01*
X328332D01*
X326666Y294332D01*
X317335Y321002D02*
Y330998D01*
X322334D01*
X324000Y329332D01*
Y326000D01*
X322334Y324334D01*
X317335D01*
X320668D02*
X324000Y321002D01*
X327332D02*
X330664D01*
X328998D01*
Y330998D01*
X327332Y329332D01*
X371000Y190332D02*
X369334Y191998D01*
X366002D01*
X364336Y190332D01*
Y183668D01*
X366002Y182002D01*
X369334D01*
X371000Y183668D01*
X374332Y182002D02*
X377664D01*
X375998D01*
Y191998D01*
X374332Y190332D01*
D15*
X95600Y369400D02*
Y469400D01*
X308600Y369400D02*
Y469400D01*
X95600D02*
X308600D01*
X95600Y369400D02*
X308600D01*
M02*
