G04*
G04 #@! TF.GenerationSoftware,Altium Limited,Altium Designer,25.4.2 (15)*
G04*
G04 Layer_Color=8388736*
%FSLAX44Y44*%
%MOMM*%
G71*
G04*
G04 #@! TF.SameCoordinates,A3258BCF-D6D9-422E-9B80-D07A6E9861EE*
G04*
G04*
G04 #@! TF.FilePolarity,Negative*
G04*
G01*
G75*
%ADD16R,1.6510X0.6604*%
%ADD20R,2.0032X1.5032*%
%ADD21R,1.0532X1.1532*%
%ADD22R,1.1532X1.0532*%
%ADD23R,1.8032X1.8032*%
%ADD24C,1.8032*%
%ADD25R,1.8032X1.8032*%
D16*
X503000Y237000D02*
D03*
X446000D02*
D03*
X503000Y247000D02*
D03*
X446000D02*
D03*
X503000Y257000D02*
D03*
X446000D02*
D03*
X503000Y267000D02*
D03*
X446000D02*
D03*
X503000Y277000D02*
D03*
X446000D02*
D03*
X503000Y287000D02*
D03*
X446000D02*
D03*
X503000Y297000D02*
D03*
X446000D02*
D03*
X503000Y307000D02*
D03*
X446000D02*
D03*
X503000Y317000D02*
D03*
X446000D02*
D03*
X503000Y327000D02*
D03*
X446000D02*
D03*
D20*
X405000Y219000D02*
D03*
X367000D02*
D03*
D21*
X384500Y373000D02*
D03*
X371500D02*
D03*
D22*
X346000Y319500D02*
D03*
Y332500D02*
D03*
Y297500D02*
D03*
Y284500D02*
D03*
X278000Y113500D02*
D03*
Y126500D02*
D03*
X253000Y113500D02*
D03*
Y126500D02*
D03*
D23*
X185400Y150000D02*
D03*
X70600Y20000D02*
D03*
Y530000D02*
D03*
X252600Y88000D02*
D03*
X19600Y500000D02*
D03*
Y50000D02*
D03*
X252200Y434400D02*
D03*
D24*
X160000Y150000D02*
D03*
X380000Y320400D02*
D03*
X553200Y20000D02*
D03*
X527800D02*
D03*
X502400D02*
D03*
X477000D02*
D03*
X451600D02*
D03*
X426200D02*
D03*
X400800D02*
D03*
X375400D02*
D03*
X350000D02*
D03*
X324600D02*
D03*
X299200D02*
D03*
X273800D02*
D03*
X248400D02*
D03*
X223000D02*
D03*
X197600D02*
D03*
X172200D02*
D03*
X146800D02*
D03*
X121400D02*
D03*
X96000D02*
D03*
X553200Y530000D02*
D03*
X527800D02*
D03*
X502400D02*
D03*
X477000D02*
D03*
X451600D02*
D03*
X426200D02*
D03*
X400800D02*
D03*
X375400D02*
D03*
X350000D02*
D03*
X324600D02*
D03*
X299200D02*
D03*
X273800D02*
D03*
X248400D02*
D03*
X223000D02*
D03*
X197600D02*
D03*
X172200D02*
D03*
X146800D02*
D03*
X121400D02*
D03*
X96000D02*
D03*
X278000Y88000D02*
D03*
X197400Y500000D02*
D03*
X172000D02*
D03*
X146600D02*
D03*
X121200D02*
D03*
X95800D02*
D03*
X70400D02*
D03*
X45000D02*
D03*
X197400Y50000D02*
D03*
X172000D02*
D03*
X146600D02*
D03*
X121200D02*
D03*
X95800D02*
D03*
X70400D02*
D03*
X45000D02*
D03*
X226800Y434400D02*
D03*
X201400Y409000D02*
D03*
X176000Y434400D02*
D03*
Y409000D02*
D03*
X252200D02*
D03*
X201400Y434400D02*
D03*
X226800Y409000D02*
D03*
X150600Y434400D02*
D03*
Y409000D02*
D03*
D25*
X380000Y295000D02*
D03*
M02*
